<svg width="88" height="88" viewBox="0 0 88 88" fill="none" xmlns="http://www.w3.org/2000/svg">
<path d="M41.2363 83.1738C59.4317 83.1738 74.2363 68.3692 74.2363 50.1738C74.2363 31.9785 59.4317 17.1738 41.2363 17.1738C23.041 17.1738 8.23633 31.9785 8.23633 50.1738C8.23633 68.3692 23.041 83.1738 41.2363 83.1738ZM41.2363 19.9238C57.9165 19.9238 71.4863 33.4937 71.4863 50.1738C71.4863 66.854 57.9165 80.4238 41.2363 80.4238C24.5562 80.4238 10.9863 66.854 10.9863 50.1738C10.9863 33.4937 24.5562 19.9238 41.2363 19.9238Z" fill="#343433"/>
<path d="M0.0112305 8.95117C0.0112305 9.71155 0.625855 10.3262 1.38623 10.3262H15.1362V23.8039C8.3341 30.5359 4.11148 39.8694 4.11148 50.1737C4.11148 70.6447 20.7655 87.2987 41.2365 87.2987C61.7075 87.2987 78.3615 70.6447 78.3615 50.1737C78.3615 39.8955 74.1609 30.5827 67.3904 23.8534V10.3262H76.6579C77.7702 11.983 79.6595 13.0762 81.8004 13.0762C85.2117 13.0762 87.9879 10.3 87.9879 6.88867C87.9879 3.4773 85.2117 0.701172 81.8004 0.701172C79.6581 0.701172 77.7689 1.7943 76.6579 3.45117H1.38623C0.625855 3.45117 0.0112305 4.0658 0.0112305 4.82617C0.0112305 5.58655 0.625855 6.20117 1.38623 6.20117H75.6816C75.6555 6.42942 75.6115 6.65355 75.6115 6.88867C75.6115 7.1238 75.6555 7.34792 75.6816 7.57617H1.38623C0.625855 7.57617 0.0112305 8.1908 0.0112305 8.95117ZM81.8017 3.45117C83.6979 3.45117 85.2392 4.99255 85.2392 6.88867C85.2392 8.7848 83.6979 10.3262 81.8017 10.3262C79.9042 10.3262 78.3615 8.7848 78.3615 6.88867C78.3615 4.99255 79.9042 3.45117 81.8017 3.45117ZM63.264 10.3262H64.6417V21.3825C64.1907 21.0154 63.7315 20.6593 63.264 20.3128V10.3262ZM22.014 10.3262H60.514V18.4579C54.8916 15.0287 48.2902 13.0487 41.2365 13.0487C34.2047 13.0487 27.624 15.0149 22.014 18.4235V10.3262ZM17.8862 10.3262H19.264V20.2743C18.7965 20.618 18.3372 20.9742 17.8862 21.3399V10.3262ZM41.2365 15.7987C60.1908 15.7987 75.6115 31.2193 75.6115 50.1737C75.6115 69.1281 60.1908 84.5487 41.2365 84.5487C22.2821 84.5487 6.86148 69.1281 6.86148 50.1737C6.86148 31.2193 22.2821 15.7987 41.2365 15.7987Z" fill="#343433"/>
<path d="M26.1282 49.4447V55.6859C26.1282 64.0307 32.9179 70.8219 41.2614 70.8219C49.6063 70.8219 56.3974 64.0321 56.3974 55.6859V49.4475C58.0763 47.9364 59.1392 45.7542 59.1392 43.3232V35.0732C59.1392 34.3129 58.5245 33.6982 57.7642 33.6982C57.0038 33.6982 56.3892 34.3129 56.3892 35.0732C56.3892 38.1065 53.9224 40.5732 50.8892 40.5732H45.3892H45.3878H45.3864C43.7364 40.5732 42.2707 41.3185 41.2628 42.4721C40.2549 41.3185 38.7892 40.5732 37.1392 40.5732H31.6392C28.6059 40.5732 26.1392 38.1065 26.1392 35.0732C26.1392 34.3129 25.5245 33.6982 24.7642 33.6982C24.0038 33.6982 23.3892 34.3129 23.3892 35.0732V43.3232C23.3892 45.7529 24.4507 47.9336 26.1282 49.4447ZM42.6378 46.0595C42.6447 44.5497 43.8739 43.3232 45.3864 43.3232H45.3878H45.3892H50.8892C53.0025 43.3232 54.9289 42.5175 56.3892 41.2057V43.3232C56.3892 46.3565 53.9224 48.8232 50.8892 48.8232H45.3892H45.3878H45.3864C43.8739 48.8232 42.6447 47.5954 42.6378 46.087C42.6378 46.0815 42.6392 46.0774 42.6392 46.0732C42.6392 46.0691 42.6378 46.065 42.6378 46.0595ZM45.3864 51.5732H45.3892H50.8892C51.8572 51.5732 52.7839 51.3972 53.6474 51.0879V55.6859C53.6474 62.5155 48.091 68.0719 41.2614 68.0719C34.4332 68.0719 28.8782 62.5155 28.8782 55.6859V51.0879C29.7417 51.3959 30.667 51.5732 31.635 51.5732C31.6364 51.5732 31.6364 51.5732 31.6364 51.5732H37.1392C38.7892 51.5732 40.2549 50.828 41.2628 49.6744C42.2707 50.828 43.7364 51.5732 45.3864 51.5732ZM26.1392 41.2057C27.6008 42.5161 29.523 43.3219 31.635 43.3232C31.6364 43.3232 31.6364 43.3232 31.6364 43.3232H37.1392C38.6517 43.3232 39.8809 44.5511 39.8878 46.0595C39.8878 46.065 39.8864 46.0691 39.8864 46.0732C39.8864 46.0774 39.8878 46.0815 39.8878 46.087C39.8809 47.5967 38.6517 48.8232 37.1392 48.8232H31.6392C28.6059 48.8232 26.1392 46.3565 26.1392 43.3232V41.2057Z" fill="#343433"/>
<path d="M44.0087 35.0487L45.4565 35.0542C45.4552 35.068 45.4483 35.079 45.4483 35.0914C45.4483 35.8517 46.0698 36.4664 46.8302 36.4664C47.5892 36.4664 48.2052 35.8517 48.2052 35.0914C48.2052 35.0817 48.1997 35.0735 48.1997 35.0639L50.8837 35.0749C50.885 35.0749 50.8878 35.0749 50.8892 35.0749C51.6468 35.0749 52.2614 34.463 52.2642 33.7054C52.2669 32.945 51.655 32.3276 50.8947 32.3249L44.0197 32.2974C44.0183 32.2974 44.0155 32.2974 44.0142 32.2974C43.2565 32.2974 42.6419 32.9092 42.6392 33.6669C42.6364 34.4286 43.2483 35.046 44.0087 35.0487Z" fill="#343433"/>
<path d="M31.6392 35.0763C31.6405 35.0763 31.6433 35.0763 31.6447 35.0763L34.4057 35.0653C34.4153 35.8175 35.0299 36.4238 35.7848 36.4238C36.5424 36.4238 37.1557 35.812 37.1584 35.0543L38.5197 35.0488C39.28 35.0461 39.8919 34.4287 39.8892 33.6683C39.8864 32.9107 39.2718 32.2988 38.5142 32.2988C38.5128 32.2988 38.51 32.2988 38.5087 32.2988L31.6337 32.3263C30.8733 32.3291 30.2614 32.9465 30.2642 33.7068C30.2669 34.4631 30.8815 35.0763 31.6392 35.0763Z" fill="#343433"/>
</svg>
