<svg width="86" height="89" viewBox="0 0 86 89" fill="none" xmlns="http://www.w3.org/2000/svg">
<path d="M56.0651 5.49023V3.42773C56.0651 1.53161 54.5237 -0.00976562 52.6276 -0.00976562C50.7314 -0.00976562 49.1901 1.53161 49.1901 3.42773V5.49023H42.3164V3.42773C42.3164 1.53161 40.7751 -0.00976562 38.8789 -0.00976562C36.9828 -0.00976562 35.4414 1.53161 35.4414 3.42773V5.49023H28.5678V3.42773C28.5678 1.53161 27.0264 -0.00976562 25.1303 -0.00976562C23.2342 -0.00976562 21.6928 1.53161 21.6928 3.42773V5.49023H14.8192V3.42773C14.8192 1.53161 13.2778 -0.00976562 11.3817 -0.00976562C9.48557 -0.00976562 7.94419 1.53161 7.94419 3.42773V5.49023H4.49707C2.22282 5.49023 0.37207 7.34098 0.37207 9.61524V70.1551C0.37207 70.9155 0.986695 71.5301 1.74707 71.5301C1.78007 71.5301 1.80757 71.5136 1.8392 71.5109H62.2539C63.0143 71.5109 63.6289 70.8962 63.6289 70.1359C63.6289 70.1111 63.6166 70.0932 63.6152 70.0685V9.61524C63.6152 7.34098 61.7644 5.49023 59.4902 5.49023H56.0651ZM51.9401 3.42773C51.9401 3.04961 52.2494 2.74023 52.6276 2.74023C53.0057 2.74023 53.3151 3.04961 53.3151 3.42773V10.3027C53.3151 10.6809 53.0057 10.9902 52.6276 10.9902C52.2494 10.9902 51.9401 10.6809 51.9401 10.3027V3.42773ZM38.1914 3.42773C38.1914 3.04961 38.5008 2.74023 38.8789 2.74023C39.2571 2.74023 39.5664 3.04961 39.5664 3.42773V10.3027C39.5664 10.6809 39.2571 10.9902 38.8789 10.9902C38.5008 10.9902 38.1914 10.6809 38.1914 10.3027V3.42773ZM24.4428 3.42773C24.4428 3.04961 24.7522 2.74023 25.1303 2.74023C25.5084 2.74023 25.8178 3.04961 25.8178 3.42773V10.3027C25.8178 10.6809 25.5084 10.9902 25.1303 10.9902C24.7522 10.9902 24.4428 10.6809 24.4428 10.3027V3.42773ZM10.6942 3.42773C10.6942 3.04961 11.0036 2.74023 11.3817 2.74023C11.7598 2.74023 12.0692 3.04961 12.0692 3.42773V10.3027C12.0692 10.6809 11.7598 10.9902 11.3817 10.9902C11.0036 10.9902 10.6942 10.6809 10.6942 10.3027V3.42773ZM60.8666 68.7622H3.12207V67.3639H60.8666V68.7622ZM60.8666 64.6139H3.12207V17.8639H60.8666V64.6139ZM60.8666 9.61524V15.1139H3.12207V9.61524C3.12207 8.85624 3.73807 8.24024 4.49707 8.24024H7.94419V10.3027C7.94419 12.1989 9.48557 13.7402 11.3817 13.7402C13.2778 13.7402 14.8192 12.1989 14.8192 10.3027V8.24024H21.6928V10.3027C21.6928 12.1989 23.2342 13.7402 25.1303 13.7402C27.0264 13.7402 28.5678 12.1989 28.5678 10.3027V8.24024H35.4414V10.3027C35.4414 12.1989 36.9828 13.7402 38.8789 13.7402C40.7751 13.7402 42.3164 12.1989 42.3164 10.3027V8.24024H49.1901V10.3027C49.1901 12.1989 50.7314 13.7402 52.6276 13.7402C54.5237 13.7402 56.0651 12.1989 56.0651 10.3027V8.24024H59.4916C60.2506 8.24024 60.8666 8.85624 60.8666 9.61524Z" fill="#343433"/>
<path d="M7.24707 28.8638H12.7471C13.5074 28.8638 14.1221 28.2491 14.1221 27.4888V21.9888C14.1221 21.2284 13.5074 20.6138 12.7471 20.6138H7.24707C6.4867 20.6138 5.87207 21.2284 5.87207 21.9888V27.4888C5.87207 28.2491 6.4867 28.8638 7.24707 28.8638ZM8.62207 23.3638H11.3721V26.1138H8.62207V23.3638Z" fill="#343433"/>
<path d="M18.2456 28.8638H23.7456C24.506 28.8638 25.1206 28.2491 25.1206 27.4888V21.9888C25.1206 21.2284 24.506 20.6138 23.7456 20.6138H18.2456C17.4852 20.6138 16.8706 21.2284 16.8706 21.9888V27.4888C16.8706 28.2491 17.4852 28.8638 18.2456 28.8638ZM19.6206 23.3638H22.3706V26.1138H19.6206V23.3638Z" fill="#343433"/>
<path d="M29.2441 28.8638H34.7441C35.5045 28.8638 36.1191 28.2491 36.1191 27.4888V21.9888C36.1191 21.2284 35.5045 20.6138 34.7441 20.6138H29.2441C28.4838 20.6138 27.8691 21.2284 27.8691 21.9888V27.4888C27.8691 28.2491 28.4838 28.8638 29.2441 28.8638ZM30.6191 23.3638H33.3691V26.1138H30.6191V23.3638Z" fill="#343433"/>
<path d="M40.2432 28.8638H45.7432C46.5035 28.8638 47.1182 28.2491 47.1182 27.4888V21.9888C47.1182 21.2284 46.5035 20.6138 45.7432 20.6138H40.2432C39.4828 20.6138 38.8682 21.2284 38.8682 21.9888V27.4888C38.8682 28.2491 39.4828 28.8638 40.2432 28.8638ZM41.6182 23.3638H44.3682V26.1138H41.6182V23.3638Z" fill="#343433"/>
<path d="M7.24707 39.8638H12.7471C13.5074 39.8638 14.1221 39.2491 14.1221 38.4888V32.9888C14.1221 32.2284 13.5074 31.6138 12.7471 31.6138H7.24707C6.4867 31.6138 5.87207 32.2284 5.87207 32.9888V38.4888C5.87207 39.2491 6.4867 39.8638 7.24707 39.8638ZM8.62207 34.3638H11.3721V37.1138H8.62207V34.3638Z" fill="#343433"/>
<path d="M18.2456 39.8638H23.7456C24.506 39.8638 25.1206 39.2491 25.1206 38.4888V32.9888C25.1206 32.2284 24.506 31.6138 23.7456 31.6138H18.2456C17.4852 31.6138 16.8706 32.2284 16.8706 32.9888V38.4888C16.8706 39.2491 17.4852 39.8638 18.2456 39.8638ZM19.6206 34.3638H22.3706V37.1138H19.6206V34.3638Z" fill="#343433"/>
<path d="M29.2441 39.8638H34.7441C35.5045 39.8638 36.1191 39.2491 36.1191 38.4888V32.9888C36.1191 32.2284 35.5045 31.6138 34.7441 31.6138H29.2441C28.4838 31.6138 27.8691 32.2284 27.8691 32.9888V38.4888C27.8691 39.2491 28.4838 39.8638 29.2441 39.8638ZM30.6191 34.3638H33.3691V37.1138H30.6191V34.3638Z" fill="#343433"/>
<path d="M7.24707 50.8638H12.7471C13.5074 50.8638 14.1221 50.2492 14.1221 49.4888V43.9888C14.1221 43.2284 13.5074 42.6138 12.7471 42.6138H7.24707C6.4867 42.6138 5.87207 43.2284 5.87207 43.9888V49.4888C5.87207 50.2492 6.4867 50.8638 7.24707 50.8638ZM8.62207 45.3638H11.3721V48.1138H8.62207V45.3638Z" fill="#343433"/>
<path d="M18.2456 50.8638H23.7456C24.506 50.8638 25.1206 50.2492 25.1206 49.4888V43.9888C25.1206 43.2284 24.506 42.6138 23.7456 42.6138H18.2456C17.4852 42.6138 16.8706 43.2284 16.8706 43.9888V49.4888C16.8706 50.2492 17.4852 50.8638 18.2456 50.8638ZM19.6206 45.3638H22.3706V48.1138H19.6206V45.3638Z" fill="#343433"/>
<path d="M29.2441 50.8638H34.7441C35.5045 50.8638 36.1191 50.2492 36.1191 49.4888V43.9888C36.1191 43.2284 35.5045 42.6138 34.7441 42.6138H29.2441C28.4838 42.6138 27.8691 43.2284 27.8691 43.9888V49.4888C27.8691 50.2492 28.4838 50.8638 29.2441 50.8638ZM30.6191 45.3638H33.3691V48.1138H30.6191V45.3638Z" fill="#343433"/>
<path d="M45.7651 42.6138H40.2651C39.5048 42.6138 38.8901 43.2284 38.8901 43.9888V49.4888C38.8901 50.2492 39.5048 50.8638 40.2651 50.8638H45.7651C46.5255 50.8638 47.1401 50.2492 47.1401 49.4888V43.9888C47.1401 43.2284 46.5241 42.6138 45.7651 42.6138ZM44.3901 48.1138H41.6401V45.3638H44.3901V48.1138Z" fill="#343433"/>
<path d="M7.24707 61.8638H12.7471C13.5074 61.8638 14.1221 61.2491 14.1221 60.4888V54.9888C14.1221 54.2284 13.5074 53.6138 12.7471 53.6138H7.24707C6.4867 53.6138 5.87207 54.2284 5.87207 54.9888V60.4888C5.87207 61.2491 6.4867 61.8638 7.24707 61.8638ZM8.62207 56.3638H11.3721V59.1138H8.62207V56.3638Z" fill="#343433"/>
<path d="M18.2456 61.8638H23.7456C24.506 61.8638 25.1206 61.2491 25.1206 60.4888V54.9888C25.1206 54.2284 24.506 53.6138 23.7456 53.6138H18.2456C17.4852 53.6138 16.8706 54.2284 16.8706 54.9888V60.4888C16.8706 61.2491 17.4852 61.8638 18.2456 61.8638ZM19.6206 56.3638H22.3706V59.1138H19.6206V56.3638Z" fill="#343433"/>
<path d="M29.2441 61.8638H34.7441C35.5045 61.8638 36.1191 61.2491 36.1191 60.4888V54.9888C36.1191 54.2284 35.5045 53.6138 34.7441 53.6138H29.2441C28.4838 53.6138 27.8691 54.2284 27.8691 54.9888V60.4888C27.8691 61.2491 28.4838 61.8638 29.2441 61.8638ZM30.6191 56.3638H33.3691V59.1138H30.6191V56.3638Z" fill="#343433"/>
<path d="M40.2432 61.8638H45.7432C46.5035 61.8638 47.1182 61.2491 47.1182 60.4888V54.9888C47.1182 54.2284 46.5035 53.6138 45.7432 53.6138H40.2432C39.4828 53.6138 38.8682 54.2284 38.8682 54.9888V60.4888C38.8682 61.2491 39.4828 61.8638 40.2432 61.8638ZM41.6182 56.3638H44.3682V59.1138H41.6182V56.3638Z" fill="#343433"/>
<path d="M40.2432 39.8638H45.7432C46.5035 39.8638 47.1182 39.2491 47.1182 38.4888V32.9888C47.1182 32.2284 46.5035 31.6138 45.7432 31.6138H40.2432C39.4828 31.6138 38.8682 32.2284 38.8682 32.9888V38.4888C38.8682 39.2491 39.4828 39.8638 40.2432 39.8638ZM41.6182 34.3638H44.3682V37.1138H41.6182V34.3638Z" fill="#343433"/>
<path d="M51.2417 39.8638H56.7417C57.5021 39.8638 58.1167 39.2491 58.1167 38.4888V32.9888C58.1167 32.2284 57.5021 31.6138 56.7417 31.6138H51.2417C50.4813 31.6138 49.8667 32.2284 49.8667 32.9888V38.4888C49.8667 39.2491 50.4813 39.8638 51.2417 39.8638ZM52.6167 34.3638H55.3667V37.1138H52.6167V34.3638Z" fill="#343433"/>
<path d="M51.2417 50.8613H56.7417C57.5021 50.8613 58.1167 50.2467 58.1167 49.4863V43.9863C58.1167 43.226 57.5021 42.6113 56.7417 42.6113H51.2417C50.4813 42.6113 49.8667 43.226 49.8667 43.9863V49.4863C49.8667 50.2467 50.4813 50.8613 51.2417 50.8613ZM52.6167 45.3613H55.3667V48.1113H52.6167V45.3613Z" fill="#343433"/>
<path d="M51.2417 61.8584H56.7417C57.5021 61.8584 58.1167 61.2438 58.1167 60.4834V54.9834C58.1167 54.223 57.5021 53.6084 56.7417 53.6084H51.2417C50.4813 53.6084 49.8667 54.223 49.8667 54.9834V60.4834C49.8667 61.2438 50.4813 61.8584 51.2417 61.8584ZM52.6167 56.3584H55.3667V59.1084H52.6167V56.3584Z" fill="#343433"/>
<path d="M51.2417 28.8638H56.7417C57.5021 28.8638 58.1167 28.2491 58.1167 27.4888V21.9888C58.1167 21.2284 57.5021 20.6138 56.7417 20.6138H51.2417C50.4813 20.6138 49.8667 21.2284 49.8667 21.9888V27.4888C49.8667 28.2491 50.4813 28.8638 51.2417 28.8638ZM52.6167 23.3638H55.3667V26.1138H52.6167V23.3638Z" fill="#343433"/>
<path d="M62.2524 80.4468C62.2524 82.3429 63.7938 83.8843 65.6899 83.8843C67.5861 83.8843 69.1274 82.3429 69.1274 80.4468C69.1274 78.5507 67.5861 77.0093 65.6899 77.0093C63.7938 77.0093 62.2524 78.5507 62.2524 80.4468ZM66.3774 80.4468C66.3774 80.8249 66.0681 81.1343 65.6899 81.1343C65.3118 81.1343 65.0024 80.8249 65.0024 80.4468C65.0024 80.0687 65.3118 79.7593 65.6899 79.7593C66.0681 79.7593 66.3774 80.0673 66.3774 80.4468Z" fill="#343433"/>
<path d="M78.0649 83.8843C79.9611 83.8843 81.5024 82.3429 81.5024 80.4468C81.5024 78.5507 79.9611 77.0093 78.0649 77.0093C76.1688 77.0093 74.6274 78.5507 74.6274 80.4468C74.6274 82.3429 76.1688 83.8843 78.0649 83.8843ZM78.0649 79.7593C78.4431 79.7593 78.7524 80.0687 78.7524 80.4468C78.7524 80.8249 78.4431 81.1343 78.0649 81.1343C77.6868 81.1343 77.3774 80.8249 77.3774 80.4468C77.3774 80.0687 77.6868 79.7593 78.0649 79.7593Z" fill="#343433"/>
<path d="M66.3761 72.9188C66.1492 72.8981 65.9209 72.8844 65.6899 72.8844C61.5209 72.8844 58.1274 76.2779 58.1274 80.4469C58.1274 84.6159 61.5209 88.0094 65.6899 88.0094C68.2461 88.0094 70.5079 86.7293 71.8774 84.7809C73.2469 86.7293 75.5088 88.0094 78.0649 88.0094C82.2339 88.0094 85.6274 84.6159 85.6274 80.4469C85.6274 76.2779 82.2339 72.8844 78.0649 72.8844C77.8326 72.8844 77.6029 72.8995 77.3761 72.9188V60.5149C77.3761 60.5121 77.3774 60.5108 77.3774 60.508C77.3774 60.5053 77.3761 60.5039 77.3761 60.5011V42.688C77.3761 42.6619 77.3623 42.6413 77.3609 42.6165C77.3623 42.5904 77.3761 42.5711 77.3761 42.545C77.3774 39.2106 75.6711 36.3795 72.5704 34.57C72.1401 34.3198 71.6148 34.3198 71.1844 34.57C68.0852 36.3768 66.3774 39.2093 66.3774 42.545C66.3774 42.5698 66.3898 42.589 66.3912 42.6138C66.3898 42.6399 66.3761 42.6605 66.3761 42.688V72.9188ZM76.5538 75.8998C77.0323 75.7416 77.5342 75.6344 78.0649 75.6344C80.7187 75.6344 82.8774 77.7931 82.8774 80.4469C82.8774 83.1006 80.7187 85.2594 78.0649 85.2594C75.4112 85.2594 73.2524 83.1006 73.2524 80.4469C73.2524 78.3541 74.6054 76.5845 76.4768 75.9259C76.5016 75.9149 76.5304 75.9121 76.5538 75.8998ZM73.2511 74.6196L73.2524 61.883H74.6261V73.719C74.1366 73.972 73.6732 74.2704 73.2511 74.6196ZM69.1274 42.545C69.1274 40.004 70.4983 38.3829 71.8774 37.3943C73.2566 38.3843 74.6274 40.0054 74.6261 42.545C74.6261 42.5711 74.6398 42.5904 74.6412 42.6165C74.6398 42.6426 74.6261 42.6619 74.6261 42.688V59.133H71.8802H71.8788H71.8774C71.1171 59.133 70.5024 59.7476 70.5024 60.508L70.5011 74.6183C70.0789 74.269 69.6156 73.9706 69.1261 73.719V42.688C69.1261 42.6633 69.1137 42.644 69.1123 42.6193C69.1137 42.5945 69.1274 42.5725 69.1274 42.545ZM67.1956 75.8984C67.2244 75.9121 67.2547 75.9163 67.2836 75.9273C69.1467 76.5859 70.4956 78.3473 70.5011 80.4331V80.4469C70.5011 80.4483 70.5024 80.4496 70.5024 80.451C70.4997 83.1034 68.3423 85.2594 65.6899 85.2594C63.0362 85.2594 60.8774 83.1006 60.8774 80.4469C60.8774 77.7931 63.0362 75.6344 65.6899 75.6344C66.2193 75.6344 66.7184 75.7403 67.1956 75.8984Z" fill="#343433"/>
<path d="M71.9175 57.7593C72.6765 57.7593 73.2925 57.1447 73.2925 56.3843C73.2925 55.6239 72.6765 55.0093 71.9175 55.0093H71.9024C71.1434 55.0093 70.5356 55.6239 70.5356 56.3843C70.5356 57.1447 71.1585 57.7593 71.9175 57.7593Z" fill="#343433"/>
</svg>
