<svg width="26" height="24" viewBox="0 0 26 24" fill="none" xmlns="http://www.w3.org/2000/svg">
<path d="M11.1106 20.7571L12.9998 16.705L14.8877 20.7557C14.8877 20.7557 14.8877 20.7571 14.8891 20.7571V20.7585C15.7883 22.6876 17.7477 23.9347 19.8776 23.9347C20.6833 23.9347 21.4643 23.7615 22.1986 23.4191C24.9458 22.1362 26.1393 18.8596 24.8578 16.1124C23.9586 14.1819 22.0006 12.9334 19.8707 12.9334C19.065 12.9334 18.284 13.1066 17.5497 13.449C16.6573 13.8656 15.9258 14.5119 15.3786 15.3011L14.5165 13.4517L19.6163 2.51499C19.9367 1.82611 19.6397 1.00799 18.9522 0.687611C18.2661 0.369986 17.4466 0.665612 17.1248 1.35174L12.9998 10.1985L8.88034 1.36274C8.55996 0.675236 7.74046 0.376862 7.05296 0.698612C6.36546 1.02036 6.06709 1.83711 6.38884 2.52599L11.4832 13.4517L10.6211 15.3011C10.0738 14.5146 9.34234 13.867 8.45134 13.4504C7.71571 13.108 6.93334 12.9334 6.12759 12.9334C3.99909 12.9334 2.04109 14.1791 1.14184 16.1096C-0.13966 18.8582 1.05384 22.1376 3.80247 23.4191C4.53672 23.7615 5.31772 23.9347 6.12347 23.9347H6.12484C8.25472 23.9347 10.21 22.689 11.1092 20.7612C11.1078 20.7599 11.1092 20.7585 11.1106 20.7571ZM17.2898 17.4929C17.5415 16.8026 18.0461 16.2512 18.7102 15.9405C19.0787 15.77 19.4692 15.682 19.8707 15.682C20.935 15.682 21.9153 16.3049 22.365 17.2715C23.0057 18.6451 22.409 20.2841 21.0353 20.9249C19.692 21.556 18.0007 20.9235 17.3806 19.5939C17.0712 18.9297 17.0382 18.1831 17.2898 17.4929ZM8.61771 19.5966C7.99896 20.9249 6.31322 21.5587 4.96434 20.9276C3.58934 20.2869 2.99259 18.6465 3.63334 17.2729C4.08297 16.3076 5.06196 15.6847 6.12621 15.6847C6.52771 15.6847 6.91959 15.7714 7.28809 15.9432C7.95222 16.254 8.45821 16.8054 8.70984 17.4942C8.96146 18.1831 8.92709 18.9284 8.61771 19.5966Z" fill="#343433"/>
</svg>
