<svg width="88" height="76" viewBox="0 0 88 76" fill="none" xmlns="http://www.w3.org/2000/svg">
<path d="M1.375 75.8125H86.625C87.3854 75.8125 88 75.1979 88 74.4375V68.9375C88 68.9279 87.9945 68.9196 87.9945 68.91C87.9917 68.7519 87.9588 68.5965 87.901 68.4466C87.8859 68.4068 87.8666 68.371 87.8474 68.3339C87.8199 68.2803 87.8034 68.2239 87.769 68.1744L74.019 47.5494C73.9929 47.5122 73.9544 47.4916 73.9269 47.4586C73.8678 47.383 73.8031 47.3198 73.7289 47.2593C73.6601 47.2043 73.5914 47.1561 73.5144 47.1163C73.4388 47.075 73.3631 47.0448 73.2793 47.02C73.1885 46.9911 73.0977 46.9733 73.0029 46.9636C72.9589 46.9595 72.9204 46.9375 72.875 46.9375H55.8827C61.0115 40.1147 66 31.1717 66 22.1875C66 10.0573 56.1302 0.1875 44 0.1875C31.8698 0.1875 22 10.0573 22 22.1875C22 31.1717 26.9885 40.1147 32.1172 46.9375H15.125C15.0796 46.9375 15.0411 46.9595 14.9971 46.9636C14.9009 46.9733 14.8101 46.9911 14.718 47.02C14.6355 47.0461 14.5612 47.075 14.4856 47.1149C14.4086 47.1561 14.3399 47.2043 14.2711 47.2606C14.1969 47.3198 14.1322 47.383 14.0731 47.4572C14.0442 47.4916 14.0058 47.5122 13.981 47.5494L0.231 68.1744C0.198 68.2239 0.180125 68.2803 0.152625 68.3339C0.133375 68.371 0.114125 68.4068 0.099 68.4466C0.04125 68.5951 0.00825 68.7519 0.0055 68.91C0.0055 68.9196 0 68.9279 0 68.9375V74.4375C0 75.1979 0.614625 75.8125 1.375 75.8125ZM84.0565 67.5625H75.3239L74.0135 64.8125H82.2236L84.0565 67.5625ZM72.1394 49.6875L76.7223 56.5625H70.0796L66.803 49.6875H72.1394ZM24.75 22.1875C24.75 11.5725 33.385 2.9375 44 2.9375C54.615 2.9375 63.25 11.5725 63.25 22.1875C63.25 36.9468 47.927 52.3605 44 56.0689C43.5999 55.6908 43.0746 55.1834 42.4655 54.5756C42.3363 54.3199 42.1328 54.1164 41.8784 53.983C36.2519 48.2547 24.75 34.9791 24.75 22.1875ZM47.4609 56.5625H57.3114L58.4939 60.6875H29.5061L30.6886 56.5625H40.5391C41.9554 57.965 42.9193 58.8202 43.0925 58.9715C43.3524 59.1984 43.6769 59.3125 44 59.3125C44.3231 59.3125 44.6476 59.1984 44.9061 58.9715C45.0794 58.8202 46.0432 57.965 47.4609 56.5625ZM15.8606 49.6875H34.2788C35.5369 51.2206 36.762 52.608 37.8785 53.8125H29.6546C29.6257 53.8125 29.6024 53.8276 29.5735 53.829C29.48 53.8345 29.392 53.8579 29.3026 53.884C29.216 53.9074 29.1335 53.9253 29.0551 53.9651C28.9795 54.0009 28.9163 54.0517 28.8503 54.1026C28.776 54.1576 28.7031 54.2099 28.6399 54.2786C28.5863 54.3391 28.5491 54.4093 28.5051 54.4794C28.4529 54.5646 28.4034 54.6444 28.3704 54.7393C28.3607 54.7654 28.3415 54.7833 28.3333 54.8108L26.3615 61.6858C26.3436 61.749 26.3546 61.8095 26.3464 61.8727C26.3367 61.9388 26.3079 61.9965 26.3079 62.0652C26.3079 62.0941 26.323 62.1189 26.3244 62.1478C26.3313 62.2426 26.3546 62.3306 26.3794 62.4214C26.4041 62.5053 26.4206 62.5877 26.4591 62.6647C26.4976 62.7417 26.5485 62.8064 26.6007 62.8737C26.6558 62.948 26.7066 63.0181 26.774 63.08C26.8345 63.1336 26.906 63.1708 26.9748 63.2148C27.0586 63.267 27.1384 63.3165 27.2332 63.3495C27.2594 63.3591 27.2773 63.3784 27.3048 63.3866C27.4299 63.4224 27.5564 63.4389 27.6801 63.4402C27.6801 63.4402 27.6815 63.4402 27.6829 63.4402H60.3171C60.3185 63.4402 60.3199 63.4402 60.3199 63.4402C60.445 63.4389 60.5715 63.4224 60.6952 63.3866C60.7227 63.3784 60.7406 63.3577 60.7668 63.3495C60.8616 63.3179 60.9427 63.267 61.0252 63.2148C61.0954 63.1721 61.1669 63.1336 61.226 63.08C61.2934 63.0181 61.3442 62.9453 61.3993 62.8737C61.4501 62.805 61.5024 62.7404 61.5409 62.6647C61.5794 62.5891 61.5972 62.5052 61.6206 62.42C61.6454 62.3306 61.6688 62.2426 61.6756 62.1478C61.677 62.1189 61.6921 62.0955 61.6921 62.0652C61.6921 61.9965 61.6632 61.9388 61.6536 61.8727C61.6454 61.8095 61.6564 61.749 61.6385 61.6858L59.6668 54.8108C59.6585 54.7833 59.6379 54.7654 59.6296 54.7393C59.598 54.6444 59.5458 54.5619 59.4935 54.478C59.4509 54.4093 59.4138 54.3391 59.3601 54.28C59.2969 54.2099 59.2226 54.1576 59.1484 54.1026C59.081 54.0531 59.0205 54.0023 58.9462 53.9651C58.8665 53.9266 58.7826 53.9074 58.6946 53.8826C58.6066 53.8579 58.5214 53.8359 58.4292 53.829C58.4004 53.8276 58.3756 53.8125 58.3454 53.8125H50.1215C51.2394 52.608 52.4631 51.2206 53.7212 49.6875H63.7574L67.969 58.5232C68.0336 58.6607 68.1203 58.7763 68.2206 58.8794C68.2523 58.9124 68.2921 58.9371 68.3265 58.9674C68.4104 59.0389 68.497 59.0994 68.5933 59.1475C68.6483 59.1764 68.7019 59.1997 68.761 59.2217C68.8737 59.2602 68.9906 59.2836 69.1116 59.2933C69.146 59.296 69.1776 59.3139 69.2134 59.3139H78.5565L80.3894 62.0639H71.8355C71.8286 62.0639 71.8217 62.068 71.8149 62.068C71.7008 62.0694 71.5908 62.1051 71.478 62.1367C71.412 62.1546 71.3405 62.1587 71.2786 62.1862C71.2649 62.1917 71.2511 62.1904 71.2401 62.1959C71.1562 62.2357 71.0971 62.3018 71.027 62.3554C70.9651 62.4008 70.8978 62.4379 70.8455 62.4929C70.7671 62.5754 70.7149 62.6702 70.6599 62.7665C70.6283 62.8229 70.5856 62.8724 70.5622 62.9329C70.5155 63.0511 70.5004 63.1749 70.488 63.3014C70.4825 63.3481 70.4591 63.3894 70.4591 63.4402C70.4591 63.4485 70.4632 63.454 70.4632 63.4609C70.4646 63.5667 70.499 63.6685 70.5265 63.7757C70.5471 63.8514 70.5526 63.9298 70.5829 63.9999C70.5884 64.0109 70.5856 64.0219 70.5911 64.0301L72.2769 67.5652H15.7218L21.9945 54.4079C21.9986 54.3996 21.9972 54.39 22.0014 54.3818C22.044 54.2896 22.0564 54.1838 22.077 54.0806C22.0935 54.0009 22.1224 53.9266 22.1238 53.8483C22.1238 53.8359 22.1306 53.8262 22.1306 53.8152C22.1306 53.7355 22.099 53.6681 22.0853 53.5911C22.0701 53.5018 22.0646 53.4096 22.0316 53.3244C21.9973 53.2336 21.9395 53.158 21.8859 53.0755C21.8433 53.0081 21.8089 52.938 21.7539 52.8789C21.6769 52.7977 21.5834 52.7414 21.4899 52.6809C21.439 52.6479 21.4032 52.5998 21.3469 52.5736C21.3386 52.5695 21.329 52.5709 21.3207 52.5668C21.2314 52.5269 21.1283 52.5159 21.0292 52.4939C20.9467 52.476 20.867 52.4471 20.7831 52.4444C20.7735 52.4444 20.7639 52.4389 20.7542 52.4389H14.0278L15.8606 49.6875ZM12.1935 55.1875H18.5749L12.6761 67.5625H3.9435L12.1935 55.1875ZM2.75 70.3125H85.25V73.0625H2.75V70.3125Z" fill="#343433"/>
</svg>
