<svg width="28" height="55" viewBox="0 0 28 55" fill="none" xmlns="http://www.w3.org/2000/svg">
<path d="M8.37607 38.9188C8.14919 38.8981 7.92094 38.8844 7.68994 38.8844C3.52094 38.8844 0.127441 42.2779 0.127441 46.4469C0.127441 50.6159 3.52094 54.0094 7.68994 54.0094C10.2461 54.0094 12.5079 52.7293 13.8774 50.7809C15.2469 52.7293 17.5088 54.0094 20.0649 54.0094C24.2339 54.0094 27.6274 50.6159 27.6274 46.4469C27.6274 42.2779 24.2339 38.8844 20.0649 38.8844C19.8326 38.8844 19.6029 38.8995 19.3761 38.9188V26.5149C19.3761 26.5121 19.3774 26.5108 19.3774 26.508C19.3774 26.5053 19.3761 26.5039 19.3761 26.5011V8.68801C19.3761 8.66189 19.3623 8.64126 19.3609 8.61651C19.3623 8.59039 19.3761 8.57114 19.3761 8.54501C19.3774 5.21064 17.6711 2.37951 14.5704 0.570012C14.1401 0.319762 13.6148 0.319762 13.1844 0.570012C10.0852 2.37676 8.37744 5.20926 8.37744 8.54501C8.37744 8.56976 8.38982 8.58901 8.39119 8.61376C8.38982 8.63989 8.37607 8.66051 8.37607 8.68801V38.9188ZM18.5538 41.8998C19.0323 41.7416 19.5342 41.6344 20.0649 41.6344C22.7187 41.6344 24.8774 43.7931 24.8774 46.4469C24.8774 49.1006 22.7187 51.2594 20.0649 51.2594C17.4112 51.2594 15.2524 49.1006 15.2524 46.4469C15.2524 44.3541 16.6054 42.5845 18.4768 41.9259C18.5016 41.9149 18.5304 41.9121 18.5538 41.8998ZM15.2511 40.6196L15.2524 27.883H16.6261V39.719C16.1366 39.972 15.6732 40.2704 15.2511 40.6196ZM11.1274 8.54501C11.1274 6.00401 12.4983 4.38288 13.8774 3.39426C15.2566 4.38426 16.6274 6.00539 16.6261 8.54501C16.6261 8.57114 16.6398 8.59039 16.6412 8.61651C16.6398 8.64264 16.6261 8.66189 16.6261 8.68801V25.133H13.8802H13.8788H13.8774C13.1171 25.133 12.5024 25.7476 12.5024 26.508L12.5011 40.6183C12.0789 40.269 11.6156 39.9706 11.1261 39.719V8.68801C11.1261 8.66326 11.1137 8.64401 11.1123 8.61926C11.1137 8.59451 11.1274 8.57251 11.1274 8.54501ZM9.19557 41.8984C9.22444 41.9121 9.25469 41.9163 9.28357 41.9273C11.1467 42.5859 12.4956 44.3473 12.5011 46.4331V46.4469C12.5011 46.4483 12.5024 46.4496 12.5024 46.451C12.4997 49.1034 10.3423 51.2594 7.68994 51.2594C5.03619 51.2594 2.87744 49.1006 2.87744 46.4469C2.87744 43.7931 5.03619 41.6344 7.68994 41.6344C8.21932 41.6344 8.71844 41.7403 9.19557 41.8984Z" fill="#343433"/>
</svg>
