<svg width="24" height="46" viewBox="0 0 24 46" fill="none" xmlns="http://www.w3.org/2000/svg">
<path d="M22.6359 43.2474H17.1359C12.9627 43.2474 9.56787 39.8539 9.56787 35.6821V34.1779C13.0824 33.5275 15.7554 30.4461 15.7554 26.7474V1.99463C15.7554 1.23425 15.1407 0.619629 14.3804 0.619629C13.62 0.619629 13.0054 1.23425 13.0054 1.99463H11.6304C11.6304 1.23425 11.0157 0.619629 10.2554 0.619629C9.495 0.619629 8.88037 1.23425 8.88037 1.99463H7.50537C7.50537 1.23425 6.89075 0.619629 6.13037 0.619629C5.37 0.619629 4.75537 1.23425 4.75537 1.99463H3.38037C3.38037 1.23425 2.76575 0.619629 2.00537 0.619629C1.245 0.619629 0.630371 1.23425 0.630371 1.99463V26.7474C0.630371 30.4461 3.30337 33.5289 6.81787 34.1779V35.6821C6.81787 41.3705 11.4461 45.9974 17.1359 45.9974H22.6359C23.3962 45.9974 24.0109 45.3828 24.0109 44.6224C24.0109 43.862 23.3962 43.2474 22.6359 43.2474ZM3.38037 4.74463H4.75537V6.11963C4.75537 6.88 5.37 7.49463 6.13037 7.49463C6.89075 7.49463 7.50537 6.88 7.50537 6.11963V4.74463H8.88037V6.11963C8.88037 6.88 9.495 7.49463 10.2554 7.49463C11.0157 7.49463 11.6304 6.88 11.6304 6.11963V4.74463H13.0054V7.49738C13.0054 8.25638 12.3894 8.87238 11.6304 8.87238H4.75537C3.99637 8.87238 3.38037 8.25638 3.38037 7.49738V4.74463ZM3.38037 26.7474V11.368C3.81212 11.522 4.27 11.6224 4.75537 11.6224H11.6304C12.1157 11.6224 12.5736 11.5234 13.0054 11.368V26.7474C13.0054 29.4011 10.8466 31.5599 8.19287 31.5599C5.53912 31.5599 3.38037 29.4011 3.38037 26.7474Z" fill="#343433"/>
</svg>
