<svg width="75" height="86" viewBox="0 0 75 86" fill="none" xmlns="http://www.w3.org/2000/svg">
<path d="M61.8555 49.8697L56.1506 49.8738C57.7539 47.0977 58.7301 43.9874 59.0079 40.7521C59.0684 40.5953 59.1083 40.4289 59.1083 40.2502V29.2529C59.1083 22.8331 56.3528 16.8889 51.5499 12.7021C52.8493 10.7441 53.611 8.3983 53.611 5.87793C53.611 5.87243 53.6083 5.86968 53.6083 5.86418V1.75293C53.6083 0.992555 52.9936 0.37793 52.2333 0.37793C51.4729 0.37793 50.8583 0.992555 50.8583 1.75293C50.8583 3.26956 49.6249 4.50293 48.1083 4.50293C48.1028 4.50293 48.1 4.50568 48.0945 4.50568H31.6949C31.6798 4.50568 31.666 4.51393 31.6523 4.51393C31.6385 4.51393 31.6234 4.50568 31.6096 4.50568C27.9315 4.50568 24.9436 7.41518 24.7676 11.0507C18.7108 15.1606 15.1096 21.9077 15.1096 29.2529V40.2502C15.1096 40.4276 15.1495 40.5953 15.21 40.7507C15.4878 43.9874 16.464 47.0963 18.0686 49.8738L12.3706 49.8697C12.3693 49.8697 12.3693 49.8697 12.3693 49.8697C5.5424 49.8697 -0.0112305 55.4219 -0.0112305 62.2474L-0.00848047 84.2474C-0.00848047 85.0078 0.60752 85.6224 1.36652 85.6224C2.12689 85.6224 2.74152 85.0064 2.74152 84.2474L2.73877 62.2474C2.73877 56.9386 7.05902 52.6197 12.3693 52.6197L19.9758 52.6252C20.6743 53.4956 21.436 54.3192 22.2693 55.0823C22.8096 57.4294 24.1255 59.6336 26.1083 61.5943V63.6279L21.5268 63.6266C21.5226 63.6266 21.5199 63.6266 21.5158 63.6266L17.861 63.6252C11.0355 63.6252 5.48327 69.1774 5.48327 76.0029L5.48602 84.2447C5.48602 85.0051 6.10202 85.6197 6.86102 85.6197C7.62139 85.6197 8.23602 85.0037 8.23602 84.2447L8.23464 80.2338L15.7174 72.7483L24.4706 81.5002L22.6955 83.2753C22.1579 83.8129 22.1579 84.6819 22.6955 85.2196C22.9636 85.4877 23.3156 85.6224 23.6676 85.6224C24.0196 85.6224 24.3716 85.4877 24.6398 85.2196L26.4149 83.4444L28.19 85.2196C28.4581 85.4877 28.8101 85.6224 29.1621 85.6224C29.5141 85.6224 29.8661 85.4877 30.1343 85.2196C30.6719 84.6819 30.6719 83.8129 30.1343 83.2753L28.3591 81.5002L37.1083 72.7511L45.8615 81.5002L44.0864 83.2753C43.5488 83.8129 43.5488 84.6819 44.0864 85.2196C44.3545 85.4877 44.7065 85.6224 45.0585 85.6224C45.4105 85.6224 45.7625 85.4877 46.0306 85.2196L47.8058 83.4444L49.5781 85.2168C49.8463 85.4849 50.1983 85.6197 50.5503 85.6197C50.9023 85.6197 51.2543 85.4849 51.5224 85.2168C52.06 84.6792 52.06 83.8102 51.5224 83.2726L49.75 81.5002L58.5005 72.7497L65.9833 80.2324V84.2447C65.9833 85.0051 66.5979 85.6197 67.3583 85.6197C68.1186 85.6197 68.7333 85.0051 68.7333 84.2447V76.0029C68.7333 69.1788 63.1824 63.6279 56.3583 63.6279L52.7035 63.6266C52.698 63.6266 52.6925 63.6266 52.687 63.6266L48.1083 63.6252V61.5943C50.0896 59.6336 51.4055 57.4322 51.9473 55.0864C52.7805 54.3219 53.5436 53.4969 54.2435 52.6252L61.8555 52.6197C67.1644 52.6197 71.4833 56.9386 71.4833 62.2474V84.2474C71.4833 85.0078 72.0979 85.6224 72.8583 85.6224C73.6186 85.6224 74.2333 85.0078 74.2333 84.2474V62.2474C74.2333 55.4219 68.681 49.8697 61.8555 49.8697ZM31.6083 7.25568C31.6234 7.25568 31.6371 7.24743 31.6509 7.24743C31.6646 7.24743 31.6798 7.25568 31.6935 7.25568H48.1083C48.1179 7.25568 48.1261 7.25018 48.1358 7.25018C49.1203 7.24468 50.0319 6.96281 50.8294 6.50356C50.5049 11.5209 46.3318 15.5057 41.2333 15.5057H31.6935C31.6784 15.5057 31.6646 15.5139 31.6509 15.5139C31.6371 15.5139 31.622 15.5057 31.6083 15.5057C29.334 15.5057 27.4833 13.6549 27.4833 11.3807C27.4833 9.10643 29.334 7.25568 31.6083 7.25568ZM8.23327 76.3467V76.0029C8.23327 73.0659 9.55877 70.4356 11.6391 68.6687L13.7745 70.8041L8.23327 76.3467ZM14.033 67.1741C15.2073 66.6626 16.5011 66.3752 17.861 66.3752H18.202L15.7174 68.8598L14.033 67.1741ZM26.4149 79.5559L17.663 70.8041L22.0905 66.3766L26.5538 66.3779L28.9573 72.3853C28.9751 72.4279 29.004 72.4596 29.0246 72.4994C29.0535 72.5544 29.0824 72.6081 29.1181 72.6576C29.1704 72.7332 29.2295 72.7978 29.2941 72.8583C29.3354 72.8968 29.3739 72.9367 29.4179 72.9697C29.4976 73.0288 29.5815 73.0714 29.6695 73.1127C29.7135 73.1333 29.7561 73.1581 29.8029 73.1746C29.939 73.2199 30.0806 73.2474 30.2264 73.2488C30.2291 73.2488 30.2319 73.2502 30.2346 73.2502C30.2346 73.2502 30.2346 73.2502 30.236 73.2502H30.2374C30.324 73.2502 30.4161 73.2419 30.5055 73.2227L33.3105 72.6617L26.4149 79.5559ZM36.9529 69.1527C36.9116 69.1568 36.8663 69.1472 36.825 69.1554L31.0844 70.3036L28.8583 64.7376V63.8631C31.0198 65.3673 33.6405 66.6639 36.6724 67.6787C36.8126 67.7254 36.9611 67.7502 37.1083 67.7502C37.2554 67.7502 37.4039 67.7254 37.5441 67.6787C40.576 66.6639 43.1954 65.3659 45.3583 63.8631V64.7376L43.1321 70.3036L37.4011 69.1568C37.2581 69.1252 37.1055 69.1334 36.9529 69.1527ZM62.5788 68.6714C64.6591 70.4383 65.9846 73.0673 65.9846 76.0029V76.3439L60.4461 70.8054L62.5788 68.6714ZM56.3583 66.3779C57.7181 66.3779 59.0106 66.6653 60.1849 67.1754L58.4991 68.8612L56.0159 66.3779H56.3583ZM52.1274 66.3766L56.5563 70.8054L47.8058 79.5559L40.9101 72.6617L43.7138 73.2227C43.8031 73.2419 43.8939 73.2502 43.9819 73.2502H43.9833C43.9846 73.2502 43.9846 73.2502 43.9846 73.2502C43.9874 73.2502 43.9901 73.2488 43.9929 73.2488C44.1373 73.2474 44.2803 73.2199 44.4164 73.1746C44.4631 73.1581 44.5044 73.1333 44.5498 73.1127C44.6364 73.0728 44.7216 73.0288 44.8014 72.9697C44.8454 72.9367 44.8839 72.8968 44.9251 72.8583C44.9898 72.7964 45.0489 72.7318 45.1011 72.6576C45.1369 72.6081 45.1658 72.5544 45.1946 72.4994C45.2153 72.4596 45.2441 72.4279 45.262 72.3853L47.6655 66.3752L52.1274 66.3766ZM49.4833 52.6252C49.4833 57.5628 44.7546 62.2474 37.1083 64.9218C29.4619 62.2474 24.7333 57.5614 24.7333 52.6252C24.7333 52.6238 24.7333 52.6238 24.7333 52.6238V48.7587C25.9488 49.4641 27.354 49.8752 28.8583 49.8752H33.6708C35.0169 49.8752 36.2338 49.3156 37.1083 48.4191C37.9828 49.3142 39.1996 49.8752 40.5458 49.8752H45.3583C46.8625 49.8752 48.2678 49.4641 49.4833 48.7587V52.6252ZM23.4243 42.2714C24.2218 42.7211 25.1279 43.0002 26.1083 43.0002H33.6708C34.8079 43.0002 35.7333 43.9256 35.7333 45.0627C35.7333 46.1998 34.8079 47.1252 33.6708 47.1252H28.8583C26.0464 47.1252 23.7474 44.9967 23.4243 42.2714ZM45.3583 47.1252H40.5458C39.4086 47.1252 38.4833 46.1998 38.4833 45.0627C38.4833 43.9256 39.4086 43.0002 40.5458 43.0002H48.1083C49.0886 43.0002 49.9948 42.7211 50.7923 42.2714C50.4691 44.9967 48.1701 47.1252 45.3583 47.1252ZM52.2333 50.7469V46.1764C53.1009 44.8716 53.6083 43.3068 53.6083 41.6252V37.5002C53.6083 36.7398 52.9936 36.1252 52.2333 36.1252C51.4729 36.1252 50.8583 36.7398 50.8583 37.5002C50.8583 39.0168 49.6249 40.2502 48.1083 40.2502H40.5458C39.1996 40.2502 37.9828 40.8098 37.1083 41.7063C36.2351 40.8098 35.0183 40.2502 33.6708 40.2502H26.1083C24.5916 40.2502 23.3583 39.0168 23.3583 37.5002C23.3583 36.7398 22.7436 36.1252 21.9833 36.1252C21.2229 36.1252 20.6083 36.7398 20.6083 37.5002V41.6252C20.6083 43.3068 21.1156 44.8702 21.9833 46.1764V50.7442C19.3433 47.3809 17.8583 43.2147 17.8583 38.8724V29.2529C17.8583 23.2524 20.6055 17.7084 25.2833 14.0716C26.3338 16.5287 28.7716 18.2557 31.6083 18.2557C31.6234 18.2557 31.6371 18.2474 31.6509 18.2474C31.6646 18.2474 31.6798 18.2557 31.6935 18.2557H41.2333C44.5498 18.2557 47.561 16.9371 49.7844 14.8058C53.9616 18.4674 56.3583 23.6539 56.3583 29.2529V38.8724C56.3583 43.2161 54.8733 47.3837 52.2333 50.7469Z" fill="#343433"/>
</svg>
