<svg width="61" height="65" viewBox="0 0 61 65" fill="none" xmlns="http://www.w3.org/2000/svg">
<path d="M61 60.106L30.5 65L0 60.106V5.1578L30.5 0L61 5.1578V60.106Z" fill="#251A08"/>
<path d="M30.5002 62.4648L1.56396 57.9371V7.10641L1.75047 7.07711L30.5002 2.34424H30.5289L59.4221 7.10641V57.9371L59.2356 57.9664L30.5002 62.4648ZM2.02304 57.5561L30.5002 62.0106L58.9774 57.5561V7.48739L30.5002 2.79848L2.02304 7.48739V57.5561Z" fill="#FAFAFA"/>
<path d="M26.2251 52.3837C26.2251 52.3691 26.2394 52.3691 26.2538 52.3544C26.3255 52.2665 26.3829 52.1786 26.4546 52.076C26.4833 52.032 26.512 51.9881 26.555 51.9441C26.5981 51.9002 26.6124 51.8709 26.6124 51.8123C26.6124 51.7683 26.6268 51.7243 26.6411 51.695C26.7128 51.5778 26.7989 51.4606 26.9137 51.3727C26.9711 51.3287 27.0141 51.2701 27.0285 51.1968C27.0285 51.1822 27.0285 51.1675 27.0428 51.1675C27.0572 51.1089 27.0858 51.1089 27.1289 51.1529L27.1432 51.1675C27.1576 51.1968 27.1719 51.1968 27.2006 51.1822C27.301 51.1382 27.4158 51.0943 27.5306 51.0503C27.7027 50.977 27.8749 50.9331 28.047 50.8452C28.3053 50.7133 28.5778 50.6254 28.8791 50.6254C29.123 50.6254 29.3525 50.6254 29.5821 50.7133C29.6825 50.7572 29.7973 50.7572 29.8977 50.7426C30.1129 50.6986 30.3281 50.684 30.5433 50.64C30.7011 50.6107 30.8445 50.5668 30.988 50.5374C31.2319 50.4788 31.4901 50.4788 31.734 50.4935C31.9635 50.5081 32.1931 50.5375 32.4226 50.64C32.5661 50.7133 32.7239 50.7426 32.8674 50.8159C33.0252 50.9038 33.183 51.021 33.3264 51.1382C33.4699 51.2554 33.556 51.4166 33.6564 51.5631C33.8429 51.8416 34.0007 52.1346 34.0868 52.4716C34.1442 52.6914 34.2302 52.9112 34.3163 53.131C34.3881 53.3068 34.4598 53.468 34.6176 53.5852C34.6319 53.5852 34.6319 53.5999 34.6463 53.6146C34.6893 53.6732 34.7324 53.7171 34.7754 53.7757C34.8041 53.8197 34.8041 53.8636 34.8041 53.9076C34.7898 53.9662 34.7897 54.0248 34.7611 54.0688C34.7037 54.186 34.6463 54.3032 34.5889 54.4205C34.5172 54.5523 34.4024 54.5963 34.2733 54.5963C34.2159 54.5963 34.1585 54.5963 34.1011 54.6109C33.9864 54.6403 33.8716 54.6256 33.7712 54.5816C33.7568 54.567 33.7425 54.5523 33.7425 54.5377C33.7568 54.4937 33.7568 54.4498 33.8142 54.4205C33.8572 54.4058 33.8859 54.3765 33.929 54.3472C33.9577 54.3179 33.9577 54.3032 33.9433 54.2739C33.929 54.2593 33.9146 54.23 33.9146 54.2153C33.9003 54.1274 33.8286 54.0541 33.7568 54.0102C33.6421 53.9369 33.5273 53.8783 33.4125 53.8197C33.3121 53.7757 33.226 53.7171 33.1543 53.6292C33.0395 53.512 32.9247 53.4094 32.81 53.3068C32.6378 53.4241 32.4944 53.5413 32.4226 53.7318C32.3652 53.8783 32.2935 54.0102 32.1931 54.1274C32.1644 54.1567 32.1357 54.2007 32.1214 54.2446C32.107 54.2593 32.107 54.2739 32.107 54.3032C32.0783 54.4058 32.0783 54.5084 32.0353 54.6109C31.9922 54.7575 31.9349 54.7868 31.777 54.7868C31.6192 54.7868 31.4614 54.7868 31.3036 54.8014C31.1602 54.8161 31.0167 54.8454 30.8732 54.8161C30.8015 54.8014 30.7298 54.7868 30.658 54.7721C30.6437 54.7721 30.615 54.7428 30.6007 54.7282C30.5863 54.6403 30.6437 54.5523 30.7298 54.523C30.8302 54.4937 30.9163 54.4205 31.0024 54.3472C31.031 54.3179 31.0454 54.2886 31.0597 54.2446C31.0741 54.2007 31.0741 54.1421 31.0741 54.0981C31.0741 54.0395 31.0884 53.9809 31.1171 53.9223C31.1602 53.8343 31.2032 53.7318 31.2175 53.6292C31.2319 53.5266 31.2462 53.4241 31.2606 53.3215C31.2606 53.3215 31.2606 53.3215 31.2462 53.3215C31.2319 53.3361 31.2319 53.3508 31.2175 53.3801C31.2032 53.3655 31.1889 53.3361 31.1745 53.3215C31.1458 53.3361 31.1315 53.3361 31.1028 53.3508C31.1028 53.3215 31.1028 53.2922 31.1028 53.2629C31.0884 53.2922 31.0741 53.3068 31.0597 53.3215C31.031 53.2775 31.0167 53.2482 30.988 53.2189C30.9737 53.2482 30.9593 53.2775 30.945 53.3068C30.9306 53.2922 30.9306 53.2922 30.9163 53.2775C30.8876 53.3068 30.8589 53.3508 30.8302 53.3801C30.8302 53.3361 30.8302 53.2922 30.8302 53.2629C30.7728 53.2775 30.7011 53.2775 30.6437 53.2922C30.5576 53.3068 30.5576 53.3068 30.5289 53.2189C30.5002 53.2482 30.4715 53.2922 30.4429 53.3215C30.4285 53.2775 30.4142 53.2336 30.3998 53.2043C30.3855 53.2189 30.3711 53.2189 30.3568 53.2189C30.3568 53.2189 30.3424 53.2189 30.3424 53.2336C30.3281 53.2043 30.2994 53.1896 30.285 53.1457C30.2707 53.2189 30.242 53.2629 30.1703 53.2482C30.1703 53.2189 30.1559 53.1896 30.1559 53.1457C30.1129 53.1896 30.0699 53.1896 30.0268 53.1457C30.0268 53.1603 30.0268 53.175 30.0268 53.175C30.0412 53.2629 30.0699 53.3508 30.0699 53.4387C30.0842 53.5706 30.0412 53.7025 30.0268 53.8197C29.9981 53.9662 29.9407 54.1127 29.826 54.23C29.8116 54.2446 29.8116 54.2739 29.8116 54.2886C29.826 54.3618 29.7973 54.4351 29.7829 54.5084C29.7686 54.5523 29.7542 54.5816 29.7112 54.5816C29.6395 54.5963 29.5534 54.5963 29.4817 54.5963C29.4099 54.5963 29.3382 54.5816 29.2665 54.5816C29.1947 54.5816 29.123 54.5816 29.0656 54.567C28.9795 54.5523 28.9508 54.523 28.9508 54.4205C28.9078 54.4644 28.8648 54.4791 28.8361 54.523C28.7787 54.5963 28.7357 54.6549 28.6926 54.7428C28.6352 54.8454 28.5635 54.8747 28.4487 54.8747C28.4487 54.8747 28.4487 54.8747 28.4344 54.8747C28.2335 54.8747 28.047 54.8747 27.8462 54.8894C27.8175 54.8894 27.7888 54.8894 27.7601 54.8894C27.631 54.8894 27.5736 54.8014 27.631 54.6842C27.6453 54.6696 27.6453 54.6403 27.6597 54.6403C27.7171 54.5963 27.7745 54.5377 27.8318 54.4937C27.8892 54.4498 27.961 54.4058 28.0183 54.3618C28.0757 54.3179 28.1331 54.2593 28.1762 54.186C28.3053 54.0248 28.707 53.4241 28.5492 53.0577C28.4918 52.9112 28.3913 52.794 28.3196 52.6621C28.2909 52.6035 28.2479 52.5742 28.1905 52.5742C28.0757 52.5742 27.961 52.5595 27.8462 52.5742C27.6884 52.5888 27.5306 52.6328 27.3871 52.6475C27.3297 52.6621 27.258 52.6475 27.1863 52.6621C27.0858 52.6768 26.9998 52.6768 26.8993 52.6914C26.885 52.6914 26.8707 52.6914 26.8563 52.6914C26.7702 52.7207 26.6841 52.7207 26.5981 52.7207C26.512 52.7207 26.4403 52.6621 26.3542 52.6475C26.3398 52.6475 26.3398 52.6328 26.3255 52.6328C26.3111 52.6182 26.2968 52.6035 26.2825 52.5889C26.182 52.4863 26.182 52.457 26.2251 52.3837Z" fill="#FAFAFA"/>
<path d="M21.2326 50.3765C20.9887 50.3912 20.5153 50.6549 20.5153 51.1092C20.5153 51.578 19.6258 51.5927 19.468 51.5927C19.2959 51.5927 14.0595 51.8564 13.7583 51.8564C13.457 51.8564 13.3853 52.003 13.3853 52.003C13.3853 52.003 13.4713 52.1495 13.7583 52.1495C14.0452 52.1495 19.2959 52.4133 19.468 52.4133C19.6402 52.4133 20.5153 52.4426 20.5153 52.8968C20.5153 53.351 20.9887 53.6294 21.2326 53.6294C21.6917 53.6587 22.0934 53.3657 22.0934 52.8528C22.0934 52.6184 21.9786 52.4572 21.8639 52.3253C21.7204 52.1349 21.5626 52.0323 21.5339 52.0323C21.4765 52.0323 21.4191 52.0323 21.3761 52.0323C21.1465 52.0323 20.6588 52.2667 20.6588 52.2667C20.6588 52.2667 20.0562 52.2374 19.6545 52.2374C19.2672 52.2374 19.1237 52.0176 19.1237 52.0176C19.1237 52.0176 19.2672 51.7978 19.6545 51.7978C20.0419 51.7978 20.6588 51.7685 20.6588 51.7685C20.6588 51.7685 21.1465 52.003 21.3761 52.003C21.4191 52.003 21.4765 52.003 21.5339 52.003C21.5626 52.003 21.7204 51.9004 21.8639 51.7099C21.9643 51.578 22.0934 51.4169 22.0934 51.1824C22.0934 50.6403 21.6917 50.3472 21.2326 50.3765ZM21.3044 52.2521C21.6343 52.2521 21.9069 52.5305 21.9069 52.8675C21.9069 53.2045 21.6343 53.4829 21.3044 53.4829C20.9744 53.4829 20.7018 53.2045 20.7018 52.8675C20.7018 52.5305 20.9744 52.2521 21.3044 52.2521ZM18.679 52.003C18.679 52.0616 18.6216 52.1202 18.5642 52.1202C18.5068 52.1202 18.4495 52.0616 18.4495 52.003C18.4495 51.9444 18.5068 51.8858 18.5642 51.8858C18.636 51.8858 18.679 51.9444 18.679 52.003ZM21.9069 51.1385C21.9069 51.4755 21.6343 51.7539 21.3044 51.7539C20.9744 51.7539 20.7018 51.4755 20.7018 51.1385C20.7018 50.8014 20.9744 50.523 21.3044 50.523C21.6343 50.523 21.9069 50.8014 21.9069 51.1385Z" fill="#FAFAFA"/>
<path d="M38.9072 51.1531C38.9072 51.3875 39.0363 51.5487 39.1368 51.6806C39.2802 51.8711 39.438 51.9736 39.4667 51.9736C39.5241 51.9736 39.5815 51.9736 39.6245 51.9736C39.8541 51.9736 40.3418 51.7392 40.3418 51.7392C40.3418 51.7392 40.9444 51.7685 41.3461 51.7685C41.7478 51.7685 41.8769 51.9883 41.8769 51.9883C41.8769 51.9883 41.7478 52.2081 41.3461 52.2081C40.9444 52.2081 40.3418 52.2374 40.3418 52.2374C40.3418 52.2374 39.8541 52.0029 39.6245 52.0029C39.5815 52.0029 39.5241 52.0029 39.4667 52.0029C39.438 52.0029 39.2802 52.1055 39.1368 52.296C39.0363 52.4279 38.9072 52.5891 38.9072 52.8235C38.9072 53.351 39.3089 53.6294 39.768 53.6001C40.0119 53.5854 40.4853 53.3217 40.4853 52.8675C40.4853 52.4132 41.3604 52.3839 41.5326 52.3839C41.7047 52.3839 46.9411 52.1202 47.2424 52.1202C47.5293 52.1202 47.6154 51.9736 47.6154 51.9736C47.6154 51.9736 47.5293 51.8271 47.2424 51.8271C46.9411 51.8271 41.7047 51.5634 41.5326 51.5634C41.3604 51.5634 40.4853 51.5487 40.4853 51.0798C40.4853 50.6256 40.0119 50.3472 39.768 50.3472C39.3089 50.3472 38.9072 50.6402 38.9072 51.1531ZM40.2988 52.8675C40.2988 53.2045 40.0262 53.4829 39.6963 53.4829C39.3663 53.4829 39.0937 53.2045 39.0937 52.8675C39.0937 52.5304 39.3663 52.252 39.6963 52.252C40.0262 52.252 40.2988 52.5304 40.2988 52.8675ZM42.4364 51.8857C42.4938 51.8857 42.5512 51.9443 42.5512 52.0029C42.5512 52.0616 42.4938 52.1202 42.4364 52.1202C42.379 52.1202 42.3216 52.0616 42.3216 52.0029C42.3216 51.9443 42.3647 51.8857 42.4364 51.8857ZM39.6963 50.523C40.0262 50.523 40.2988 50.8014 40.2988 51.1384C40.2988 51.4754 40.0262 51.7538 39.6963 51.7538C39.3663 51.7538 39.0937 51.4754 39.0937 51.1384C39.0937 50.8014 39.3663 50.523 39.6963 50.523Z" fill="#FAFAFA"/>
<path d="M10.7741 45.7901C10.0424 46.0099 9.66944 46.1271 8.93778 46.3615C8.14874 43.8413 7.74705 42.5811 6.95801 40.0462C7.66097 39.8117 8.01963 39.7091 8.72259 39.4894C9.95636 39.123 10.6306 39.4747 10.8745 40.4271C10.9462 40.7202 10.9893 40.8521 11.061 41.1451C11.1758 41.5994 10.8315 42.1708 10.8315 42.1708C10.8458 42.2001 11.5344 42.5225 11.6492 42.9914C11.7496 43.3724 11.7927 43.5628 11.8931 43.9438C12.1657 44.9256 11.7209 45.5117 10.7741 45.7901ZM9.49728 40.8814C9.42555 40.6469 9.26774 40.559 9.05255 40.6176C8.92344 40.6616 8.8517 40.6762 8.72259 40.7202C8.89474 41.321 8.98082 41.614 9.15298 42.2148C9.2534 42.1855 9.31078 42.1708 9.41121 42.1415C9.66944 42.0683 9.76986 41.9071 9.69813 41.658C9.6264 41.3356 9.58336 41.1891 9.49728 40.8814ZM10.2863 43.3284C10.2146 43.0793 10.0424 42.9767 9.79855 43.05C9.65509 43.094 9.58336 43.1086 9.4399 43.1526C9.64075 43.8266 9.72682 44.1636 9.92767 44.823C10.0711 44.779 10.1285 44.7644 10.272 44.7204C10.5015 44.6472 10.6019 44.4713 10.5302 44.2222C10.4441 43.8559 10.3867 43.6801 10.2863 43.3284Z" fill="white"/>
<path d="M15.2497 44.6182C15.0632 44.1053 14.9771 43.8416 14.7906 43.3287C14.475 43.402 14.3315 43.4313 14.0159 43.5046C14.0733 44.0467 14.0877 44.3251 14.145 44.8673C13.6286 44.9992 13.3704 45.0578 12.8395 45.1897C12.5526 42.5228 12.4378 41.1894 12.2227 38.5226C13.0404 38.3175 13.4564 38.2295 14.2742 38.0391C15.221 40.5447 15.6801 41.8048 16.5552 44.3251C16.0387 44.4424 15.7805 44.501 15.2497 44.6182ZM13.9155 40.7205C13.7577 40.2663 13.5712 39.6655 13.5712 39.6655C13.5569 39.6655 13.5569 39.6655 13.5425 39.6655C13.5425 39.6655 13.6429 40.2956 13.686 40.7645C13.7577 41.4092 13.8007 41.7316 13.8725 42.3763C14.0877 42.3177 14.2024 42.303 14.4176 42.2444C14.2311 41.6437 14.1164 41.336 13.9155 40.7205Z" fill="white"/>
<path d="M19.2669 43.8416C19.1234 42.9184 19.0517 42.4642 18.9082 41.5411C18.8652 41.3066 18.7217 41.2041 18.5496 41.2334C18.4061 41.2627 18.3344 41.2627 18.1909 41.292C18.3631 42.347 18.4491 42.8745 18.6356 43.9441C18.0905 44.0321 17.8323 44.0907 17.2871 44.1932C16.7993 41.585 16.5555 40.2809 16.082 37.6874C16.7993 37.5409 17.158 37.4822 17.8896 37.365C19.1521 37.1452 19.769 37.5995 19.9125 38.5666C19.9555 38.9036 19.9842 39.0794 20.0272 39.4164C20.099 39.8853 19.5968 40.5007 19.5968 40.5007C19.5968 40.5154 20.2424 40.9403 20.2998 41.4092C20.4289 42.303 20.4863 42.7426 20.6011 43.6364C20.0703 43.7097 19.812 43.7537 19.2669 43.8416ZM18.5209 39.0941C18.5065 38.9915 18.4922 38.9329 18.4778 38.8303C18.4348 38.5959 18.2913 38.4786 18.0761 38.5226C17.947 38.5519 17.8753 38.5519 17.7462 38.5812C17.8466 39.1966 17.904 39.519 18.0044 40.1344C18.1479 40.1051 18.2196 40.0904 18.3631 40.0758C18.5352 40.0465 18.65 39.9 18.607 39.6802C18.5783 39.4311 18.5639 39.3138 18.5209 39.0941Z" fill="white"/>
<path d="M23.5423 43.2699C22.7819 43.3432 22.4089 43.3871 21.6629 43.4897C21.333 40.8668 21.1752 39.5481 20.8452 36.9106C21.5769 36.8226 21.9355 36.7787 22.6672 36.7054C23.9296 36.5735 24.5322 37.0571 24.6039 38.0388C24.6326 38.3319 24.6326 38.4784 24.6613 38.7861C24.7043 39.2697 24.2596 39.7532 24.2596 39.7532C24.2596 39.7825 24.8765 40.2368 24.9052 40.7056C24.9339 41.1013 24.9482 41.2918 24.9769 41.6874C25.0486 42.6984 24.5178 43.182 23.5423 43.2699ZM23.1549 38.2147C23.1263 37.9656 22.9828 37.8483 22.7819 37.8776C22.6528 37.8923 22.5811 37.8923 22.452 37.907C22.5094 38.5224 22.5524 38.8301 22.6098 39.4602C22.7102 39.4455 22.7676 39.4455 22.868 39.4309C23.1263 39.4015 23.2554 39.2697 23.241 39.0059C23.2123 38.6836 23.1836 38.5224 23.1549 38.2147ZM23.4993 40.7496C23.4706 40.4859 23.3271 40.354 23.0689 40.3833C22.9254 40.3979 22.8537 40.4126 22.7102 40.4272C22.7819 41.1159 22.825 41.4676 22.8967 42.1709C23.0402 42.1563 23.1119 42.1416 23.2554 42.127C23.4993 42.0977 23.614 41.9511 23.5997 41.6874C23.5566 41.3211 23.5423 41.1306 23.4993 40.7496Z" fill="white"/>
<path d="M25.9956 43.0645C25.8378 40.4124 25.7517 39.0936 25.5796 36.4561C26.756 36.3828 27.3298 36.3535 28.5062 36.3242C28.5206 36.8078 28.5206 37.0422 28.5349 37.5258C27.9611 37.5404 27.6885 37.5551 27.1146 37.5697C27.1433 38.1412 27.1577 38.4196 27.172 38.991C27.6598 38.9617 27.9037 38.9617 28.4058 38.9471C28.4201 39.416 28.4201 39.6504 28.4345 40.1193C27.9467 40.134 27.7028 40.1486 27.2151 40.1633C27.2437 40.808 27.2581 41.145 27.2868 41.7897C27.8319 41.7604 28.0902 41.7604 28.6353 41.7458C28.6497 42.2293 28.6497 42.4638 28.664 42.9473C27.6024 42.9766 27.0716 43.0059 25.9956 43.0645Z" fill="white"/>
<path d="M31.533 42.9329C31.5474 41.9951 31.5474 41.5409 31.5617 40.6031C31.5617 40.3687 31.4326 40.2514 31.2604 40.2368C31.117 40.2368 31.0453 40.2368 30.9018 40.2368C30.9018 41.3064 30.8874 41.8486 30.8874 42.9183C30.3423 42.9183 30.0697 42.9183 29.5246 42.9183C29.4959 40.2661 29.4672 38.9473 29.4385 36.2952C30.1701 36.2805 30.5288 36.2805 31.2604 36.2952C32.5373 36.3098 33.0681 36.852 33.0394 37.8337C33.025 38.1707 33.025 38.3466 33.0107 38.6836C32.9963 39.1671 32.3938 39.6653 32.3938 39.6653C32.3938 39.68 32.9533 40.2075 32.939 40.691C32.9103 41.5995 32.8959 42.0391 32.8672 42.9476C32.3508 42.9476 32.0782 42.9476 31.533 42.9329ZM31.6048 38.1268C31.6048 38.0242 31.6048 37.9656 31.6048 37.8484C31.6048 37.5993 31.4756 37.4674 31.2604 37.4674C31.1313 37.4674 31.0596 37.4674 30.9305 37.4674C30.9305 38.0975 30.9305 38.4198 30.9161 39.0499C31.0596 39.0499 31.1313 39.0499 31.2748 39.0499C31.4469 39.0499 31.5904 38.9327 31.5904 38.6982C31.6048 38.4638 31.6048 38.3466 31.6048 38.1268Z" fill="white"/>
<path d="M37.5296 43.3727C36.511 43.2701 35.8511 42.6547 35.9228 41.7023C35.9371 41.4239 35.9515 41.2773 35.9802 40.9989C36.5397 41.0429 36.8266 41.0722 37.3718 41.1161C37.3431 41.3946 37.3287 41.5411 37.3 41.8195C37.2713 42.0686 37.4291 42.2151 37.63 42.2298C37.8882 42.2591 38.046 42.1125 38.0891 41.7609C38.1178 41.4825 38.046 41.2187 37.8739 41.0136C37.4578 40.53 37.2426 40.2809 36.7979 39.7974C36.4106 39.3725 36.2097 38.9182 36.2671 38.127C36.3532 37.0573 36.9988 36.5005 38.1752 36.6324C39.2798 36.7496 39.8537 37.3943 39.7532 38.3468C39.7245 38.6252 39.6958 38.7717 39.6672 39.0501C39.122 38.9768 38.8494 38.9475 38.2899 38.8889C38.3186 38.6105 38.333 38.464 38.3616 38.1856C38.3903 37.9804 38.2899 37.8046 38.0604 37.7753C37.8308 37.746 37.6874 37.9658 37.6587 38.2735C37.63 38.5519 37.7017 38.801 37.8452 38.9622C38.2756 39.4457 38.4908 39.6948 38.9211 40.193C39.2941 40.6179 39.495 41.0868 39.4089 41.8927C39.2942 42.9331 38.6199 43.4753 37.5296 43.3727Z" fill="white"/>
<path d="M42.1346 43.9147C42.3211 42.8011 42.4072 42.2589 42.5794 41.1453C42.3068 41.1013 42.1777 41.072 41.9051 41.0281C41.7329 42.1417 41.6469 42.6838 41.4747 43.7974C40.9295 43.7095 40.657 43.6656 40.1118 43.5923C40.4705 40.9694 40.6426 39.6507 41.0013 37.0278C41.5895 37.1157 41.8907 37.1597 42.4933 37.2476C42.3355 38.3026 42.2494 38.8301 42.0916 39.8851C42.3642 39.9291 42.5076 39.9584 42.7802 40.0024C42.9524 38.9474 43.0384 38.4199 43.2106 37.3795C43.7988 37.4821 44.1001 37.5407 44.6883 37.6433C44.2148 40.2515 43.9709 41.5556 43.4975 44.1638C42.9524 44.0465 42.6798 44.0026 42.1346 43.9147Z" fill="white"/>
<path d="M46.1228 44.7937C45.1185 44.5593 44.5734 43.8706 44.7599 42.9328C45.0468 41.4675 45.1903 40.7349 45.4772 39.2696C45.6637 38.3318 46.4958 37.9215 47.5861 38.1706C48.6764 38.4197 49.2646 39.167 49.035 40.0901C48.6764 41.5408 48.5042 42.2734 48.1456 43.7094C47.9304 44.6472 47.127 45.0282 46.1228 44.7937ZM47.6004 39.7824C47.6578 39.548 47.5143 39.3868 47.3422 39.3428C47.17 39.2989 46.9692 39.3868 46.9262 39.6212C46.6105 41.0572 46.4527 41.7606 46.1515 43.1965C46.1084 43.431 46.2232 43.5922 46.3953 43.6215C46.5531 43.6654 46.7397 43.5629 46.797 43.3431C47.1127 41.9217 47.2705 41.2038 47.6004 39.7824Z" fill="white"/>
<path d="M51.2162 43.6069C51.0297 43.5483 50.9293 43.519 50.7428 43.4603C50.4845 44.3688 50.3554 44.8377 50.0972 45.7462C49.5664 45.585 49.3082 45.5117 48.7773 45.3652C49.4516 42.801 49.7816 41.5262 50.4558 38.9619C51.1875 39.1671 51.5462 39.2696 52.2635 39.4748C53.4972 39.8411 53.8702 40.5151 53.5833 41.4676C53.4255 41.9657 53.3538 42.2002 53.196 42.6984C52.9234 43.5922 52.1774 43.8999 51.2162 43.6069ZM52.1774 41.0866C52.2491 40.8521 52.1487 40.691 51.9478 40.6177C51.8044 40.5737 51.7327 40.5591 51.5892 40.5151C51.3883 41.2331 51.2879 41.5994 51.0727 42.3174C51.1875 42.3467 51.2449 42.376 51.374 42.4053C51.6179 42.4786 51.79 42.4053 51.8618 42.1562C51.9909 41.7167 52.0483 41.5115 52.1774 41.0866Z" fill="white"/>
<path d="M6.52749 38.6541C22.9826 34.0824 38.4765 33.8333 54.4725 38.6541C54.9172 38.786 55.1037 38.1852 54.659 38.0533C38.6056 33.1593 22.3944 33.1593 6.34099 38.0533C5.89625 38.1852 6.08275 38.8006 6.52749 38.6541Z" fill="white"/>
<path d="M9.61191 48.5007C23.9438 44.5297 37.4579 44.2953 51.388 48.5007C51.7754 48.6179 51.9618 48.0171 51.5745 47.8999C37.5152 43.6506 23.4847 43.6506 9.42541 47.8999C9.03806 48.0025 9.22456 48.6179 9.61191 48.5007Z" fill="white"/>
<path d="M15.4795 11.7516L21.6914 12.2352V11.2681L15.4795 11.7516Z" fill="#FAFAFA"/>
<path d="M45.5205 11.7516L39.3086 12.2352V11.2681L45.5205 11.7516Z" fill="#FAFAFA"/>
<path fill-rule="evenodd" clip-rule="evenodd" d="M29.8259 11.9275C29.8259 11.9275 30.7584 13.0704 31.1171 13.129C30.701 13.5979 30.1702 12.7774 29.8402 12.5429C28.2909 14.1694 25.6798 15.5028 22.9254 16.3087C22.3515 16.4845 22.2941 15.7079 22.8823 15.5321C25.5938 14.7116 27.8031 13.5686 29.3238 12.0154C28.8217 11.444 28.2765 10.9311 27.7457 10.3304C27.3153 10.4036 27.0858 10.5795 27.0284 10.9018C26.268 10.1106 25.063 8.86507 24.03 7.86868C24.6326 6.16895 25.9668 8.0152 27.1288 9.18743C27.7744 9.8175 28.9077 10.9897 28.9077 10.9897C28.9364 11.019 29.8259 11.9275 29.8259 11.9275Z" fill="#FAFAFA"/>
<path fill-rule="evenodd" clip-rule="evenodd" d="M31.1745 11.9275C31.1745 11.9275 30.242 13.0704 29.8833 13.129C30.2993 13.5979 30.8301 12.7774 31.1601 12.5429C32.7095 14.1694 35.3205 15.5028 38.075 16.3087C38.6488 16.4845 38.7062 15.7079 38.118 15.5321C35.4066 14.7116 33.1973 13.5686 31.6766 12.0154C32.1787 11.444 32.7238 10.9311 33.2547 10.3304C33.685 10.4036 33.9146 10.5795 33.972 10.9018C34.7323 10.1106 35.9374 8.86507 36.9703 7.86868C36.3678 6.16895 35.0336 8.0152 33.8715 9.18743C33.226 9.8175 32.0926 10.9897 32.0926 10.9897C32.0639 11.019 31.1745 11.9275 31.1745 11.9275Z" fill="#FAFAFA"/>
<path d="M15.5942 24.9829C16.7563 24.1916 17.4593 23.1659 17.4736 22.1402C17.4879 20.2793 15.293 18.6821 12.6676 18.6675C11.9503 18.6675 11.233 18.6675 10.53 18.6675C10.3149 18.6675 10.114 18.7261 9.9562 18.8433C9.79839 18.7261 9.59754 18.6675 9.38235 18.6675C8.73677 18.6675 8.10554 18.6675 7.45996 18.6675C7.45996 19.195 7.45996 19.7371 7.45996 20.2646C7.60342 20.2646 7.76123 20.25 7.90469 20.25C8.13423 20.25 8.33508 20.4258 8.33508 20.6456C8.33508 24.9389 8.32073 29.2468 8.32073 33.5401C8.32073 33.7746 8.13423 34.009 7.90469 34.0676C7.76123 34.1116 7.61777 34.1555 7.47431 34.1848C7.47431 34.7123 7.47431 35.2545 7.47431 35.782C8.10554 35.5915 8.72243 35.401 9.35366 35.2105C9.56885 35.1519 9.75535 35.0347 9.91316 34.8735C10.071 34.9468 10.2718 34.9468 10.4727 34.8882C11.3908 34.6391 12.309 34.4046 13.2271 34.1995C15.8238 33.5548 18.0474 31.1517 18.0761 28.7486C18.0761 28.7193 18.0761 28.69 18.0761 28.6754C18.0761 27.1222 17.0863 25.7008 15.5942 24.9829ZM14.0879 23.1512C14.0879 24.1183 13.1984 24.5579 12.6389 24.6019C12.2803 24.6312 11.9216 24.6751 11.563 24.7045C11.563 23.3124 11.5773 21.9204 11.5773 20.5284C11.5773 20.3086 11.7782 20.1328 12.0077 20.1328C12.2229 20.1328 12.4381 20.1181 12.6533 20.1181C13.1267 20.1035 14.0879 20.4258 14.0879 21.4369C14.0879 22.0083 14.0879 22.5798 14.0879 23.1512ZM11.5343 32.7489C11.5486 30.5802 11.5486 28.397 11.563 26.2283C12.1368 26.1551 12.6963 26.0965 13.2702 26.0379C13.8297 25.9792 14.7048 26.243 14.7048 27.2101C14.6904 28.5288 14.6904 29.8329 14.6761 31.1517C14.6617 32.1627 13.7006 32.6756 13.2271 32.7782C12.7967 32.8661 12.3807 32.9687 11.9503 33.0566C11.7208 33.1005 11.5343 32.9686 11.5343 32.7489Z" fill="white"/>
<path d="M30.5142 30.4777C29.0652 26.5361 27.645 22.6384 26.239 18.6528C25.7226 18.6528 25.2061 18.6528 24.6753 18.6528C23.2837 22.6677 21.8778 26.7852 20.4575 31.0931C20.2997 31.5766 20.0845 31.6059 20.0128 31.6206C19.8693 31.6353 19.7115 31.6646 19.5681 31.6792C19.5681 32.1188 19.5681 32.573 19.5537 33.0126C19.9124 32.954 20.2854 32.91 20.6584 32.8661C20.8736 32.8368 21.0888 32.7489 21.2466 32.6463C21.4044 32.7196 21.6052 32.7489 21.8204 32.7342C22.1934 32.6903 22.5664 32.6463 22.9394 32.617C22.9394 32.1774 22.9394 31.7525 22.9538 31.3129C22.8103 31.3275 22.6525 31.3422 22.509 31.3568C22.3943 31.3715 22.2795 31.3568 22.2364 31.3129C22.1934 31.2689 22.2078 31.1957 22.2221 31.1371C22.6525 29.8476 23.0972 28.5582 23.5276 27.298C24.3597 27.2541 25.1918 27.2101 26.0238 27.1808C26.6407 28.8952 27.2433 30.5802 27.8601 32.28C28.2905 32.2653 28.7066 32.2507 29.137 32.236C29.3522 32.236 29.553 32.1774 29.7252 32.0748C29.8973 32.1628 30.0982 32.2214 30.3133 32.2067C30.6863 32.2067 31.0593 32.2067 31.4467 32.2067C31.4467 31.7818 31.4467 31.3715 31.4467 30.9466C31.2889 30.9466 31.1454 30.9466 30.9876 30.9466C30.8872 30.9173 30.6863 30.9173 30.5142 30.4777ZM23.9723 25.9499C24.2306 25.188 24.4888 24.4407 24.747 23.6788C25.0053 24.4114 25.2635 25.144 25.5217 25.8767C25.0053 25.906 24.4888 25.9206 23.9723 25.9499Z" fill="white"/>
<path d="M40.2986 30.4191C40.2986 30.9759 39.7535 31.3715 39.0649 31.3129C38.7206 31.2836 38.3619 31.2543 38.0176 31.225C37.8024 31.2103 37.6016 31.0345 37.6016 30.8586C37.5872 27.342 37.5585 23.8106 37.5442 20.2939C37.5442 20.1035 37.7307 19.9569 37.9459 19.9569C38.0893 19.9569 38.2471 19.9569 38.3906 19.9569C38.3906 19.5173 38.3906 19.0924 38.3763 18.6528C37.7307 18.6528 37.0995 18.6528 36.4539 18.6528C36.2387 18.6528 36.0378 18.7114 35.88 18.7994C35.7222 18.7114 35.5214 18.6528 35.3062 18.6528C34.6606 18.6528 34.0294 18.6528 33.3838 18.6528C33.3838 19.0778 33.3838 19.5027 33.3838 19.913C33.5273 19.913 33.6851 19.913 33.8285 19.913C34.0437 19.913 34.2302 20.0742 34.2302 20.25C34.2446 23.7227 34.2446 27.1808 34.2589 30.6535C34.2589 30.8293 34.0724 30.9759 33.8572 30.9759C33.6994 30.9759 33.5559 30.9612 33.3981 30.9612C33.3981 31.3861 33.3981 31.8111 33.3981 32.2214C34.0437 32.236 34.6893 32.2653 35.3492 32.3093C35.5644 32.3239 35.7653 32.28 35.9374 32.192C36.1096 32.2946 36.3104 32.3679 36.5256 32.3825C38.2041 32.4998 39.8683 32.6756 41.5468 32.91C41.6902 32.0162 41.8337 31.137 41.9628 30.2432C41.4033 30.1846 40.8438 30.1113 40.2843 30.0674C40.2986 30.1846 40.2986 30.3018 40.2986 30.4191Z" fill="white"/>
<path d="M52.4495 18.6528C52.2343 18.6528 52.0335 18.7261 51.8757 18.8287C51.7179 18.7114 51.517 18.6528 51.3018 18.6528C50.6563 18.6528 50.025 18.6528 49.3794 18.6528C49.3794 19.1364 49.3794 19.6346 49.3938 20.1181C49.5373 20.1181 49.6951 20.1181 49.8385 20.1328C50.0681 20.1328 50.2402 20.3086 50.2402 20.5284C50.2546 24.2795 50.2833 28.0306 50.2976 31.7964C50.2976 32.9687 49.2647 32.9833 48.8486 32.8954C48.4469 32.8075 47.3853 32.3386 47.3853 31.2396C47.3566 27.6497 47.3423 24.0597 47.3136 20.4551C47.3136 20.2353 47.4858 20.0888 47.7153 20.0888C47.8588 20.0888 48.0166 20.0888 48.16 20.1035C48.16 19.6199 48.16 19.1364 48.1457 18.6528C47.5001 18.6528 46.8689 18.6528 46.2233 18.6528C46.0081 18.6528 45.8072 18.7114 45.6494 18.814C45.4916 18.7114 45.2908 18.6528 45.0756 18.6528C44.43 18.6528 43.7844 18.6528 43.1245 18.6528C43.1245 19.1071 43.1245 19.5613 43.1389 20.0009C43.2823 20.0009 43.4401 20.0009 43.5836 20.0009C43.8131 20.0009 44.014 20.1621 44.014 20.3672C44.0427 23.1952 44.057 26.0232 44.0857 28.8512C44.1 31.3568 46.2663 33.7599 48.863 34.4046C51.4596 35.064 53.5398 33.3496 53.5398 30.3898C53.5398 27.1368 53.5255 23.8839 53.5255 20.631C53.5255 20.3965 53.712 20.2207 53.9559 20.2353C54.0993 20.2353 54.2572 20.25 54.4006 20.25C54.4006 19.7225 54.4006 19.1803 54.4006 18.6528C53.7407 18.6528 53.0951 18.6528 52.4495 18.6528Z" fill="white"/>
</svg>
