<svg width="55" height="15" viewBox="0 0 55 15" fill="none" xmlns="http://www.w3.org/2000/svg">
<path d="M10.8 6.72C11.5733 6.97333 12.1867 7.4 12.64 8C13.0933 8.58667 13.32 9.32 13.32 10.2C13.32 11.4133 12.8533 12.3533 11.92 13.02C10.9867 13.6733 9.62667 14 7.84 14H0.88V-9.53674e-07H7.44C9.09333 -9.53674e-07 10.3667 0.326666 11.26 0.98C12.1533 1.62 12.6 2.50667 12.6 3.64C12.6 4.33333 12.44 4.94667 12.12 5.48C11.8 6.01333 11.36 6.42667 10.8 6.72ZM3.48 2.04V5.9H7.16C8.06667 5.9 8.76 5.74 9.24 5.42C9.73333 5.08667 9.98 4.60667 9.98 3.98C9.98 3.34 9.73333 2.86 9.24 2.54C8.76 2.20667 8.06667 2.04 7.16 2.04H3.48ZM7.68 11.96C9.69333 11.96 10.7 11.2867 10.7 9.94C10.7 8.59333 9.69333 7.92 7.68 7.92H3.48V11.96H7.68ZM25.1748 10.76H18.1748L16.7948 14H14.1148L20.4148 -9.53674e-07H22.9748L29.2948 14H26.5748L25.1748 10.76ZM24.3148 8.72L21.6748 2.6L19.0548 8.72H24.3148ZM31.0753 -9.53674e-07H33.6753V11.8H40.9953V14H31.0753V-9.53674e-07ZM48.8727 14.2C46.9393 14.2 45.4327 13.66 44.3527 12.58C43.2727 11.4867 42.7327 9.92667 42.7327 7.9V-9.53674e-07H45.3327V7.8C45.3327 10.5467 46.5193 11.92 48.8927 11.92C51.2527 11.92 52.4327 10.5467 52.4327 7.8V-9.53674e-07H54.9927V7.9C54.9927 9.92667 54.4527 11.4867 53.3727 12.58C52.306 13.66 50.806 14.2 48.8727 14.2Z" fill="white"/>
</svg>
