<svg width="60" height="76" viewBox="0 0 60 76" fill="none" xmlns="http://www.w3.org/2000/svg">
<path d="M30 4.55957C24.9566 4.55957 20.0264 6.07506 15.833 8.9144C11.6395 11.7537 8.37112 15.7894 6.44108 20.511C4.51105 25.2327 4.00606 30.4282 4.98999 35.4407C5.97391 40.4532 8.40255 45.0574 11.9688 48.6712C15.535 52.285 20.0787 54.746 25.0252 55.7431C29.9717 56.7401 35.0989 56.2284 39.7584 54.2726C44.418 52.3168 48.4005 49.0049 51.2025 44.7555C54.0045 40.5061 55.5 35.5102 55.5 30.3996C55.5 23.5464 52.8134 16.9739 48.0312 12.1279C43.2491 7.28199 36.763 4.55957 30 4.55957ZM42.096 37.7685C41.4138 38.9524 40.5207 39.9976 39.462 40.8511C38.6127 41.6115 37.5965 42.1555 36.498 42.438C35.1829 42.6882 33.8251 42.5662 32.574 42.0853C30.3738 41.3474 28.3746 40.0981 26.736 38.4373C25.422 37.2213 23.772 35.3487 23.772 35.3487C22.2625 33.7631 20.969 31.98 19.926 30.0469C19.1342 28.6014 18.5292 27.0586 18.126 25.4565C17.7642 24.136 17.6462 22.7591 17.778 21.3951C17.8507 20.8274 17.9671 20.2663 18.126 19.717C18.786 17.5343 20.688 15.7711 22.008 14.7618C22.1678 14.6395 22.3501 14.5506 22.5441 14.5003C22.7381 14.4499 22.9401 14.4392 23.1382 14.4686C23.3364 14.498 23.5268 14.567 23.6985 14.6716C23.8701 14.7762 24.0195 14.9144 24.138 15.078L27.426 19.6076C27.5744 19.8184 27.6681 20.0636 27.6985 20.3207C27.729 20.5778 27.6951 20.8386 27.6 21.0789C27.1929 22.2927 26.4865 23.3809 25.548 24.2405C25.3124 24.4463 25.066 24.6391 24.81 24.8181L24.75 24.8668C24.468 25.0857 23.418 26.0828 24.75 27.9068C26.4806 30.3226 28.3858 32.6048 30.45 34.7346C30.894 35.1481 32.106 36.0479 33.18 34.5583C33.624 33.8348 35.178 30.9832 36.282 31.5791C36.546 31.725 39.984 34.4063 41.682 35.8351C41.9664 36.055 42.1642 36.3704 42.2401 36.7246C42.3159 37.0789 42.2649 37.4489 42.096 37.7685Z" fill="black"/>
</svg>
