<svg width="69" height="86" viewBox="0 0 69 86" fill="none" xmlns="http://www.w3.org/2000/svg">
<g clip-path="url(#clip0)">
<path d="M1.07812 63.9624H67.9219C68.5181 63.9624 69 63.4819 69 62.8874V58.5874C69 58.5799 68.9957 58.5734 68.9957 58.5659C68.9935 58.4423 68.9677 58.3208 68.9224 58.2036C68.9105 58.1725 68.8954 58.1445 68.8803 58.1155C68.8588 58.0736 68.8458 58.0295 68.8189 57.9908L58.0376 41.8658C58.0171 41.8368 57.987 41.8206 57.9654 41.7948C57.919 41.7357 57.8684 41.6863 57.8101 41.639C57.7562 41.596 57.7023 41.5583 57.642 41.5271C57.5827 41.4949 57.5234 41.4713 57.4576 41.4519C57.3864 41.4293 57.3153 41.4154 57.2409 41.4078C57.2064 41.4046 57.1762 41.3874 57.1406 41.3874H43.8172C47.8386 36.0533 51.75 29.0615 51.75 22.0374C51.75 12.5538 44.0112 4.8374 34.5 4.8374C24.9888 4.8374 17.25 12.5538 17.25 22.0374C17.25 29.0615 21.1614 36.0533 25.1828 41.3874H11.8594C11.8238 41.3874 11.7936 41.4046 11.7591 41.4078C11.6836 41.4154 11.6125 41.4293 11.5403 41.4519C11.4756 41.4723 11.4173 41.4949 11.358 41.5261C11.2977 41.5583 11.2438 41.596 11.1899 41.64C11.1316 41.6862 11.081 41.7357 11.0346 41.7937C11.012 41.8206 10.9818 41.8368 10.9624 41.8658L0.181125 57.9908C0.15525 58.0295 0.141234 58.0736 0.119672 58.1155C0.104578 58.1445 0.0894844 58.1725 0.077625 58.2036C0.0323437 58.3197 0.00646875 58.4423 0.0043125 58.5659C0.0043125 58.5734 0 58.5799 0 58.5874V62.8874C0 63.4819 0.481922 63.9624 1.07812 63.9624ZM65.9079 57.5124H59.0608L58.0333 55.3624H64.4708L65.9079 57.5124ZM56.5638 43.5374L60.1572 48.9124H54.9488L52.3796 43.5374H56.5638ZM19.4062 22.0374C19.4062 13.7384 26.1769 6.9874 34.5 6.9874C42.8231 6.9874 49.5938 13.7384 49.5938 22.0374C49.5938 33.5765 37.5791 45.6272 34.5 48.5265C34.1863 48.2308 33.7744 47.8342 33.2968 47.359C33.1955 47.1591 33.0359 47 32.8365 46.8957C28.4248 42.4173 19.4062 32.0381 19.4062 22.0374ZM37.2136 48.9124H44.9373L45.8645 52.1374H23.1355L24.0627 48.9124H31.7864C32.8968 50.0089 33.6526 50.6775 33.7884 50.7958C33.9922 50.9732 34.2466 51.0624 34.5 51.0624C34.7534 51.0624 35.0078 50.9732 35.2105 50.7958C35.3463 50.6775 36.1021 50.0089 37.2136 48.9124ZM12.4362 43.5374H26.8777C27.8641 44.736 28.8248 45.8207 29.7002 46.7624H23.2519C23.2293 46.7624 23.211 46.7742 23.1883 46.7753C23.115 46.7796 23.046 46.7979 22.9759 46.8183C22.908 46.8366 22.8433 46.8505 22.7819 46.8817C22.7226 46.9097 22.673 46.9494 22.6212 46.9892C22.563 47.0322 22.5059 47.0731 22.4563 47.1268C22.4142 47.1741 22.3851 47.229 22.3506 47.2838C22.3096 47.3504 22.2708 47.4128 22.245 47.4869C22.2374 47.5074 22.2223 47.5214 22.2158 47.5429L20.6698 52.9179C20.6558 52.9673 20.6644 53.0146 20.658 53.064C20.6504 53.1157 20.6278 53.1608 20.6278 53.2145C20.6278 53.2371 20.6396 53.2565 20.6407 53.279C20.6461 53.3532 20.6644 53.422 20.6838 53.493C20.7032 53.5586 20.7162 53.6231 20.7464 53.6833C20.7765 53.7435 20.8164 53.794 20.8574 53.8466C20.9005 53.9047 20.9404 53.9595 20.9932 54.0079C21.0407 54.0498 21.0968 54.0788 21.1507 54.1133C21.2164 54.1541 21.279 54.1928 21.3533 54.2186C21.3738 54.2261 21.3878 54.2412 21.4094 54.2476C21.5075 54.2756 21.6067 54.2885 21.7037 54.2895C21.7037 54.2895 21.7048 54.2895 21.7059 54.2895H47.2941C47.2952 54.2895 47.2963 54.2895 47.2963 54.2895C47.3944 54.2885 47.4936 54.2756 47.5906 54.2476C47.6122 54.2412 47.6262 54.225 47.6467 54.2186C47.721 54.1939 47.7847 54.1541 47.8493 54.1133C47.9043 54.0799 47.9604 54.0498 48.0067 54.0079C48.0596 53.9595 48.0995 53.9025 48.1426 53.8466C48.1825 53.7929 48.2235 53.7424 48.2536 53.6833C48.2838 53.6241 48.2978 53.5585 48.3162 53.4919C48.3356 53.422 48.3539 53.3532 48.3593 53.279C48.3604 53.2565 48.3722 53.2382 48.3722 53.2145C48.3722 53.1608 48.3496 53.1157 48.342 53.064C48.3356 53.0146 48.3442 52.9673 48.3302 52.9179L46.7842 47.5429C46.7777 47.5214 46.7615 47.5074 46.755 47.4869C46.7303 47.4128 46.6893 47.3483 46.6483 47.2827C46.6149 47.229 46.5858 47.1741 46.5437 47.1279C46.4941 47.0731 46.4359 47.0322 46.3777 46.9892C46.3249 46.9505 46.2774 46.9108 46.2192 46.8817C46.1567 46.8516 46.0909 46.8366 46.0219 46.8172C45.9529 46.7979 45.8861 46.7807 45.8138 46.7753C45.7912 46.7742 45.7718 46.7624 45.7481 46.7624H39.2998C40.1763 45.8207 41.1359 44.736 42.1223 43.5374H49.9916L53.2939 50.4453C53.3445 50.5528 53.4125 50.6432 53.4912 50.7238C53.516 50.7496 53.5472 50.7689 53.5742 50.7926C53.64 50.8485 53.7079 50.8958 53.7833 50.9334C53.8265 50.956 53.8685 50.9742 53.9149 50.9914C54.0033 51.0215 54.0949 51.0398 54.1898 51.0473C54.2168 51.0495 54.2416 51.0635 54.2696 51.0635H61.5954L63.0326 53.2135H56.3256C56.3202 53.2135 56.3148 53.2167 56.3094 53.2167C56.2199 53.2178 56.1337 53.2457 56.0452 53.2705C55.9935 53.2844 55.9374 53.2877 55.8889 53.3092C55.8781 53.3134 55.8674 53.3124 55.8587 53.3167C55.793 53.3479 55.7466 53.3995 55.6916 53.4414C55.6431 53.4768 55.5903 53.5059 55.5493 53.5489C55.4879 53.6134 55.4469 53.6875 55.4038 53.7628C55.379 53.8069 55.3455 53.8456 55.3272 53.8929C55.2906 53.9853 55.2787 54.0821 55.269 54.181C55.2647 54.2175 55.2464 54.2498 55.2464 54.2895C55.2464 54.296 55.2496 54.3003 55.2496 54.3057C55.2507 54.3884 55.2776 54.468 55.2992 54.5518C55.3154 54.611 55.3197 54.6722 55.3434 54.7271C55.3477 54.7357 55.3455 54.7443 55.3499 54.7507L56.6716 57.5145H12.3273L17.2457 47.2279C17.2489 47.2214 17.2478 47.2139 17.2511 47.2075C17.2845 47.1354 17.2942 47.0527 17.3104 46.972C17.3233 46.9097 17.346 46.8516 17.347 46.7904C17.347 46.7807 17.3524 46.7731 17.3524 46.7645C17.3524 46.7022 17.3276 46.6495 17.3168 46.5893C17.305 46.5195 17.3007 46.4474 17.2748 46.3808C17.2478 46.3098 17.2026 46.2507 17.1605 46.1862C17.1271 46.1335 17.1001 46.0787 17.057 46.0325C16.9966 45.969 16.9233 45.925 16.85 45.8777C16.8101 45.8519 16.7821 45.8142 16.7379 45.7938C16.7314 45.7906 16.7239 45.7917 16.7174 45.7885C16.6473 45.7573 16.5665 45.7487 16.4888 45.7315C16.4242 45.7175 16.3616 45.6949 16.2959 45.6928C16.2883 45.6928 16.2808 45.6885 16.2732 45.6885H10.999L12.4362 43.5374ZM9.56081 47.8374H14.5644L9.93923 57.5124H3.09206L9.56081 47.8374ZM2.15625 59.6624H66.8438V61.8124H2.15625V59.6624Z" fill="#343433"/>
<path d="M33.0185 30.3012L34.4998 27.1331L35.9801 30.3001C35.9801 30.3001 35.9801 30.3012 35.9812 30.3012V30.3022C36.6862 31.8105 38.2226 32.7855 39.8926 32.7855C40.5244 32.7855 41.1367 32.65 41.7125 32.3824C43.8666 31.3794 44.8024 28.8177 43.7976 26.6698C43.0925 25.1605 41.5572 24.1844 39.8872 24.1844C39.2554 24.1844 38.643 24.3199 38.0673 24.5875C37.3676 24.9133 36.7941 25.4185 36.365 26.0356L35.689 24.5897L39.6877 16.0391C39.9389 15.5006 39.7061 14.8609 39.167 14.6105C38.629 14.3621 37.9865 14.5933 37.7342 15.1297L34.4998 22.0462L31.2697 15.1383C31.0185 14.6008 30.376 14.3675 29.8369 14.6191C29.2979 14.8706 29.0639 15.5092 29.3162 16.0477L33.3106 24.5897L32.6347 26.0356C32.2056 25.4207 31.632 24.9143 30.9334 24.5886C30.3566 24.3209 29.7431 24.1844 29.1113 24.1844C27.4424 24.1844 25.9072 25.1584 25.2021 26.6677C24.1972 28.8166 25.1331 31.3805 27.2882 32.3824C27.8639 32.65 28.4763 32.7855 29.1081 32.7855H29.1092C30.7792 32.7855 32.3123 31.8115 33.0174 30.3044C33.0163 30.3033 33.0174 30.3022 33.0185 30.3012ZM37.8636 27.7491C38.0609 27.2095 38.4565 26.7784 38.9773 26.5354C39.2662 26.4021 39.5724 26.3333 39.8872 26.3333C40.7217 26.3333 41.4904 26.8203 41.8429 27.576C42.3453 28.65 41.8774 29.9314 40.8004 30.4323C39.747 30.9257 38.4209 30.4312 37.9347 29.3917C37.6921 28.8725 37.6663 28.2888 37.8636 27.7491ZM31.0638 29.3939C30.5787 30.4323 29.2569 30.9279 28.1992 30.4345C27.1211 29.9335 26.6532 28.651 27.1556 27.5771C27.5082 26.8225 28.2758 26.3355 29.1103 26.3355C29.4251 26.3355 29.7323 26.4032 30.0213 26.5376C30.542 26.7805 30.9388 27.2116 31.1361 27.7502C31.3334 28.2888 31.3064 28.8714 31.0638 29.3939Z" fill="#343433"/>
</g>
<defs>
<clipPath id="clip0">
<rect width="69" height="86" fill="white"/>
</clipPath>
</defs>
</svg>
