<svg width="60" height="75" viewBox="0 0 60 75" fill="none" xmlns="http://www.w3.org/2000/svg">
<g clip-path="url(#clip0)">
<path d="M25.5 0C20.4566 0 15.5264 1.49555 11.333 4.29752C7.13952 7.0995 3.87112 11.0821 1.94108 15.7416C0.0110487 20.4011 -0.493936 25.5283 0.489987 30.4748C1.47391 35.4213 3.90255 39.965 7.46879 43.5312C11.035 47.0975 15.5787 49.5261 20.5252 50.51C25.4717 51.4939 30.5989 50.9889 35.2584 49.0589C39.9179 47.1289 43.9005 43.8605 46.7025 39.667C49.5044 35.4736 51 30.5434 51 25.5C51 18.737 48.3134 12.251 43.5312 7.46878C38.749 2.6866 32.263 0 25.5 0V0ZM13.0866 18.4467C13.3891 17.7176 13.9074 17.0986 14.5721 16.6728C15.2367 16.2471 16.0158 16.0349 16.8045 16.065C19.6911 16.065 22.5777 16.065 25.4745 16.065C28.3713 16.065 31.2681 16.065 34.1445 16.065C34.9246 16.0318 35.6969 16.2326 36.3621 16.6416C37.0273 17.0505 37.5551 17.6489 37.8777 18.36C37.9425 18.45 37.9849 18.5542 38.0011 18.6639C38.0174 18.7736 38.0071 18.8856 37.9711 18.9905C37.9351 19.0954 37.8745 19.1901 37.7944 19.2668C37.7143 19.3434 37.6169 19.3997 37.5105 19.431L26.01 25.4235C25.8649 25.5067 25.7005 25.5505 25.5332 25.5505C25.3658 25.5505 25.2015 25.5067 25.0563 25.4235L13.4079 19.38C13.3154 19.3524 13.2308 19.3032 13.1612 19.2364C13.0915 19.1696 13.0388 19.0872 13.0074 18.9959C12.976 18.9047 12.9668 18.8072 12.9805 18.7117C12.9943 18.6162 13.0307 18.5253 13.0866 18.4467ZM38.1786 31.6506C38.0337 32.5756 37.5598 33.4172 36.8439 34.0206C36.128 34.624 35.2184 34.9487 34.2822 34.935C31.9158 34.935 29.5494 34.935 27.1881 34.935H16.7943C15.912 34.9545 15.0488 34.677 14.3431 34.147C13.6374 33.6171 13.1303 32.8654 12.903 32.0127C12.8116 31.6803 12.7636 31.3374 12.7602 30.9927C12.7602 28.2183 12.7602 25.4439 12.7602 22.6644C12.7602 21.9453 13.209 21.6801 13.8567 22.0116C17.4777 23.8952 21.0953 25.7822 24.7095 27.6726C24.9527 27.8167 25.2301 27.8927 25.5128 27.8927C25.7954 27.8927 26.0728 27.8167 26.316 27.6726C29.9132 25.7856 33.5155 23.9156 37.1229 22.0626C37.2249 22.0031 37.3348 21.9585 37.4493 21.93C37.5467 21.8963 37.651 21.888 37.7525 21.9058C37.854 21.9236 37.9492 21.9669 38.0293 22.0317C38.1094 22.0965 38.1717 22.1806 38.2103 22.2761C38.2489 22.3717 38.2626 22.4754 38.25 22.5777C38.25 24.9815 38.25 27.3836 38.25 29.784C38.2775 30.4071 38.2536 31.0314 38.1786 31.6506Z" fill="black"/>
</g>
<defs>
<clipPath id="clip0">
<rect width="60" height="75" fill="white"/>
</clipPath>
</defs>
</svg>
