<svg width="23" height="44" viewBox="0 0 23 44" fill="none" xmlns="http://www.w3.org/2000/svg">
<path d="M6.90506 31.5604C6.71978 31.5435 6.53337 31.5323 6.34471 31.5323C2.93991 31.5323 0.168457 34.3038 0.168457 37.7086C0.168457 41.1134 2.93991 43.8848 6.34471 43.8848C8.43228 43.8848 10.2795 42.8393 11.398 41.2481C12.5165 42.8393 14.3637 43.8848 16.4513 43.8848C19.8561 43.8848 22.6276 41.1134 22.6276 37.7086C22.6276 34.3038 19.8561 31.5323 16.4513 31.5323C16.2615 31.5323 16.074 31.5447 15.8887 31.5604V21.4302C15.8887 21.428 15.8898 21.4268 15.8898 21.4246C15.8898 21.4223 15.8887 21.4212 15.8887 21.419V6.8711C15.8887 6.84976 15.8775 6.83292 15.8764 6.8127C15.8775 6.79137 15.8887 6.77565 15.8887 6.75431C15.8898 4.03115 14.4962 1.71898 11.964 0.241174C11.6125 0.0367962 11.1835 0.0367962 10.832 0.241174C8.3009 1.71674 6.90619 4.03002 6.90619 6.75431C6.90619 6.77452 6.9163 6.79025 6.91742 6.81046C6.9163 6.8318 6.90506 6.84864 6.90506 6.8711V31.5604ZM15.2172 33.9949C15.608 33.8658 16.0178 33.7782 16.4513 33.7782C18.6186 33.7782 20.3816 35.5413 20.3816 37.7086C20.3816 39.8759 18.6186 41.6389 16.4513 41.6389C14.284 41.6389 12.521 39.8759 12.521 37.7086C12.521 35.9994 13.6259 34.5542 15.1543 34.0163C15.1745 34.0073 15.1981 34.0051 15.2172 33.9949ZM12.5198 32.9495L12.521 22.5475H13.6428V32.2139C13.243 32.4206 12.8646 32.6642 12.5198 32.9495ZM9.1521 6.75431C9.1521 4.67909 10.2717 3.35513 11.398 2.54772C12.5243 3.35625 13.6439 4.68021 13.6428 6.75431C13.6428 6.77565 13.654 6.79137 13.6551 6.8127C13.654 6.83404 13.6428 6.84976 13.6428 6.8711V20.3016H11.4003H11.3991H11.398C10.777 20.3016 10.2751 20.8036 10.2751 21.4246L10.2739 32.9484C9.92918 32.6631 9.55075 32.4194 9.15097 32.2139V6.8711C9.15097 6.85089 9.14087 6.83516 9.13975 6.81495C9.14087 6.79474 9.1521 6.77677 9.1521 6.75431ZM7.57435 33.9938C7.59793 34.0051 7.62263 34.0084 7.64621 34.0174C9.16782 34.5553 10.2694 35.9938 10.2739 37.6973V37.7086C10.2739 37.7097 10.2751 37.7108 10.2751 37.7119C10.2728 39.8781 8.51089 41.6389 6.34471 41.6389C4.17741 41.6389 2.41437 39.8759 2.41437 37.7086C2.41437 35.5413 4.17741 33.7782 6.34471 33.7782C6.77705 33.7782 7.18468 33.8647 7.57435 33.9938Z" fill="#343433"/>
</svg>
