<svg width="70" height="72" viewBox="0 0 70 72" fill="none" xmlns="http://www.w3.org/2000/svg">
<path d="M45.4842 4.49182V2.80739C45.4842 1.25883 44.2253 0 42.6768 0C41.1282 0 39.8694 1.25883 39.8694 2.80739V4.49182H34.2557V2.80739C34.2557 1.25883 32.9969 0 31.4483 0C29.8998 0 28.641 1.25883 28.641 2.80739V4.49182H23.0273V2.80739C23.0273 1.25883 21.7685 0 20.2199 0C18.6714 0 17.4125 1.25883 17.4125 2.80739V4.49182H11.7989V2.80739C11.7989 1.25883 10.5401 0 8.9915 0C7.44294 0 6.18411 1.25883 6.18411 2.80739V4.49182H3.36886C1.5115 4.49182 0 6.00332 0 7.86068V57.3033C0 57.9243 0.501961 58.4262 1.12295 58.4262C1.14991 58.4262 1.17236 58.4127 1.19819 58.4105H50.5386C51.1596 58.4105 51.6615 57.9085 51.6615 57.2875C51.6615 57.2673 51.6514 57.2527 51.6503 57.2325V7.86068C51.6503 6.00332 50.1388 4.49182 48.2814 4.49182H45.4842ZM42.1153 2.80739C42.1153 2.49857 42.368 2.24591 42.6768 2.24591C42.9856 2.24591 43.2382 2.49857 43.2382 2.80739V8.42216C43.2382 8.73097 42.9856 8.98364 42.6768 8.98364C42.368 8.98364 42.1153 8.73097 42.1153 8.42216V2.80739ZM30.8869 2.80739C30.8869 2.49857 31.1395 2.24591 31.4483 2.24591C31.7572 2.24591 32.0098 2.49857 32.0098 2.80739V8.42216C32.0098 8.73097 31.7572 8.98364 31.4483 8.98364C31.1395 8.98364 30.8869 8.73097 30.8869 8.42216V2.80739ZM19.6584 2.80739C19.6584 2.49857 19.9111 2.24591 20.2199 2.24591C20.5287 2.24591 20.7814 2.49857 20.7814 2.80739V8.42216C20.7814 8.73097 20.5287 8.98364 20.2199 8.98364C19.9111 8.98364 19.6584 8.73097 19.6584 8.42216V2.80739ZM8.43002 2.80739C8.43002 2.49857 8.68269 2.24591 8.9915 2.24591C9.30031 2.24591 9.55298 2.49857 9.55298 2.80739V8.42216C9.55298 8.73097 9.30031 8.98364 8.9915 8.98364C8.68269 8.98364 8.43002 8.73097 8.43002 8.42216V2.80739ZM49.4055 56.1657H2.24591V55.0237H49.4055V56.1657ZM49.4055 52.7778H2.24591V14.5973H49.4055V52.7778ZM49.4055 7.86068V12.3514H2.24591V7.86068C2.24591 7.24081 2.74899 6.73773 3.36886 6.73773H6.18411V8.42216C6.18411 9.97072 7.44294 11.2295 8.9915 11.2295C10.5401 11.2295 11.7989 9.97072 11.7989 8.42216V6.73773H17.4125V8.42216C17.4125 9.97072 18.6714 11.2295 20.2199 11.2295C21.7685 11.2295 23.0273 9.97072 23.0273 8.42216V6.73773H28.641V8.42216C28.641 9.97072 29.8998 11.2295 31.4483 11.2295C32.9969 11.2295 34.2557 9.97072 34.2557 8.42216V6.73773H39.8694V8.42216C39.8694 9.97072 41.1282 11.2295 42.6768 11.2295C44.2253 11.2295 45.4842 9.97072 45.4842 8.42216V6.73773H48.2826C48.9024 6.73773 49.4055 7.24081 49.4055 7.86068Z" fill="#343433"/>
<path d="M5.61465 23.5805H10.1065C10.7275 23.5805 11.2294 23.0785 11.2294 22.4575V17.9657C11.2294 17.3447 10.7275 16.8428 10.1065 16.8428H5.61465C4.99366 16.8428 4.4917 17.3447 4.4917 17.9657V22.4575C4.4917 23.0785 4.99366 23.5805 5.61465 23.5805ZM6.73761 19.0887H8.98352V21.3346H6.73761V19.0887Z" fill="#343433"/>
<path d="M14.5971 23.5805H19.0889C19.7099 23.5805 20.2119 23.0785 20.2119 22.4575V17.9657C20.2119 17.3447 19.7099 16.8428 19.0889 16.8428H14.5971C13.9761 16.8428 13.4741 17.3447 13.4741 17.9657V22.4575C13.4741 23.0785 13.9761 23.5805 14.5971 23.5805ZM15.72 19.0887H17.9659V21.3346H15.72V19.0887Z" fill="#343433"/>
<path d="M23.58 23.5805H28.0718C28.6928 23.5805 29.1948 23.0785 29.1948 22.4575V17.9657C29.1948 17.3447 28.6928 16.8428 28.0718 16.8428H23.58C22.959 16.8428 22.457 17.3447 22.457 17.9657V22.4575C22.457 23.0785 22.959 23.5805 23.58 23.5805ZM24.7029 19.0887H26.9489V21.3346H24.7029V19.0887Z" fill="#343433"/>
<path d="M32.5624 23.5805H37.0542C37.6752 23.5805 38.1772 23.0785 38.1772 22.4575V17.9657C38.1772 17.3447 37.6752 16.8428 37.0542 16.8428H32.5624C31.9414 16.8428 31.4395 17.3447 31.4395 17.9657V22.4575C31.4395 23.0785 31.9414 23.5805 32.5624 23.5805ZM33.6854 19.0887H35.9313V21.3346H33.6854V19.0887Z" fill="#343433"/>
<path d="M5.61465 32.5644H10.1065C10.7275 32.5644 11.2294 32.0624 11.2294 31.4414V26.9496C11.2294 26.3286 10.7275 25.8267 10.1065 25.8267H5.61465C4.99366 25.8267 4.4917 26.3286 4.4917 26.9496V31.4414C4.4917 32.0624 4.99366 32.5644 5.61465 32.5644ZM6.73761 28.0726H8.98352V30.3185H6.73761V28.0726Z" fill="#343433"/>
<path d="M14.5971 32.5644H19.0889C19.7099 32.5644 20.2119 32.0624 20.2119 31.4414V26.9496C20.2119 26.3286 19.7099 25.8267 19.0889 25.8267H14.5971C13.9761 25.8267 13.4741 26.3286 13.4741 26.9496V31.4414C13.4741 32.0624 13.9761 32.5644 14.5971 32.5644ZM15.72 28.0726H17.9659V30.3185H15.72V28.0726Z" fill="#343433"/>
<path d="M23.58 32.5644H28.0718C28.6928 32.5644 29.1948 32.0624 29.1948 31.4414V26.9496C29.1948 26.3286 28.6928 25.8267 28.0718 25.8267H23.58C22.959 25.8267 22.457 26.3286 22.457 26.9496V31.4414C22.457 32.0624 22.959 32.5644 23.58 32.5644ZM24.7029 28.0726H26.9489V30.3185H24.7029V28.0726Z" fill="#343433"/>
<path d="M5.61465 41.5483H10.1065C10.7275 41.5483 11.2294 41.0463 11.2294 40.4253V35.9335C11.2294 35.3125 10.7275 34.8105 10.1065 34.8105H5.61465C4.99366 34.8105 4.4917 35.3125 4.4917 35.9335V40.4253C4.4917 41.0463 4.99366 41.5483 5.61465 41.5483ZM6.73761 37.0565H8.98352V39.3024H6.73761V37.0565Z" fill="#343433"/>
<path d="M14.5971 41.5483H19.0889C19.7099 41.5483 20.2119 41.0463 20.2119 40.4253V35.9335C20.2119 35.3125 19.7099 34.8105 19.0889 34.8105H14.5971C13.9761 34.8105 13.4741 35.3125 13.4741 35.9335V40.4253C13.4741 41.0463 13.9761 41.5483 14.5971 41.5483ZM15.72 37.0565H17.9659V39.3024H15.72V37.0565Z" fill="#343433"/>
<path d="M23.58 41.5483H28.0718C28.6928 41.5483 29.1948 41.0463 29.1948 40.4253V35.9335C29.1948 35.3125 28.6928 34.8105 28.0718 34.8105H23.58C22.959 34.8105 22.457 35.3125 22.457 35.9335V40.4253C22.457 41.0463 22.959 41.5483 23.58 41.5483ZM24.7029 37.0565H26.9489V39.3024H24.7029V37.0565Z" fill="#343433"/>
<path d="M37.0723 34.8105H32.5805C31.9595 34.8105 31.4575 35.3125 31.4575 35.9335V40.4253C31.4575 41.0463 31.9595 41.5483 32.5805 41.5483H37.0723C37.6933 41.5483 38.1952 41.0463 38.1952 40.4253V35.9335C38.1952 35.3125 37.6922 34.8105 37.0723 34.8105ZM35.9493 39.3024H33.7034V37.0565H35.9493V39.3024Z" fill="#343433"/>
<path d="M5.61465 50.5317H10.1065C10.7275 50.5317 11.2294 50.0297 11.2294 49.4087V44.9169C11.2294 44.2959 10.7275 43.7939 10.1065 43.7939H5.61465C4.99366 43.7939 4.4917 44.2959 4.4917 44.9169V49.4087C4.4917 50.0297 4.99366 50.5317 5.61465 50.5317ZM6.73761 46.0399H8.98352V48.2858H6.73761V46.0399Z" fill="#343433"/>
<path d="M14.5971 50.5317H19.0889C19.7099 50.5317 20.2119 50.0297 20.2119 49.4087V44.9169C20.2119 44.2959 19.7099 43.7939 19.0889 43.7939H14.5971C13.9761 43.7939 13.4741 44.2959 13.4741 44.9169V49.4087C13.4741 50.0297 13.9761 50.5317 14.5971 50.5317ZM15.72 46.0399H17.9659V48.2858H15.72V46.0399Z" fill="#343433"/>
<path d="M23.58 50.5317H28.0718C28.6928 50.5317 29.1948 50.0297 29.1948 49.4087V44.9169C29.1948 44.2959 28.6928 43.7939 28.0718 43.7939H23.58C22.959 43.7939 22.457 44.2959 22.457 44.9169V49.4087C22.457 50.0297 22.959 50.5317 23.58 50.5317ZM24.7029 46.0399H26.9489V48.2858H24.7029V46.0399Z" fill="#343433"/>
<path d="M32.5624 50.5317H37.0542C37.6752 50.5317 38.1772 50.0297 38.1772 49.4087V44.9169C38.1772 44.2959 37.6752 43.7939 37.0542 43.7939H32.5624C31.9414 43.7939 31.4395 44.2959 31.4395 44.9169V49.4087C31.4395 50.0297 31.9414 50.5317 32.5624 50.5317ZM33.6854 46.0399H35.9313V48.2858H33.6854V46.0399Z" fill="#343433"/>
<path d="M32.5624 32.5644H37.0542C37.6752 32.5644 38.1772 32.0624 38.1772 31.4414V26.9496C38.1772 26.3286 37.6752 25.8267 37.0542 25.8267H32.5624C31.9414 25.8267 31.4395 26.3286 31.4395 26.9496V31.4414C31.4395 32.0624 31.9414 32.5644 32.5624 32.5644ZM33.6854 28.0726H35.9313V30.3185H33.6854V28.0726Z" fill="#343433"/>
<path d="M41.5448 32.5644H46.0366C46.6576 32.5644 47.1596 32.0624 47.1596 31.4414V26.9496C47.1596 26.3286 46.6576 25.8267 46.0366 25.8267H41.5448C40.9238 25.8267 40.4219 26.3286 40.4219 26.9496V31.4414C40.4219 32.0624 40.9238 32.5644 41.5448 32.5644ZM42.6678 28.0726H44.9137V30.3185H42.6678V28.0726Z" fill="#343433"/>
<path d="M41.5448 41.5463H46.0366C46.6576 41.5463 47.1596 41.0444 47.1596 40.4234V35.9315C47.1596 35.3106 46.6576 34.8086 46.0366 34.8086H41.5448C40.9238 34.8086 40.4219 35.3106 40.4219 35.9315V40.4234C40.4219 41.0444 40.9238 41.5463 41.5448 41.5463ZM42.6678 37.0545H44.9137V39.3004H42.6678V37.0545Z" fill="#343433"/>
<path d="M41.5448 50.5273H46.0366C46.6576 50.5273 47.1596 50.0253 47.1596 49.4043V44.9125C47.1596 44.2915 46.6576 43.7896 46.0366 43.7896H41.5448C40.9238 43.7896 40.4219 44.2915 40.4219 44.9125V49.4043C40.4219 50.0253 40.9238 50.5273 41.5448 50.5273ZM42.6678 46.0355H44.9137V48.2814H42.6678V46.0355Z" fill="#343433"/>
<path d="M41.5448 23.5805H46.0366C46.6576 23.5805 47.1596 23.0785 47.1596 22.4575V17.9657C47.1596 17.3447 46.6576 16.8428 46.0366 16.8428H41.5448C40.9238 16.8428 40.4219 17.3447 40.4219 17.9657V22.4575C40.4219 23.0785 40.9238 23.5805 41.5448 23.5805ZM42.6678 19.0887H44.9137V21.3346H42.6678V19.0887Z" fill="#343433"/>
<path d="M50.5371 65.7088C50.5371 67.2573 51.7959 68.5161 53.3445 68.5161C54.8931 68.5161 56.1519 67.2573 56.1519 65.7088C56.1519 64.1602 54.8931 62.9014 53.3445 62.9014C51.7959 62.9014 50.5371 64.1602 50.5371 65.7088ZM53.906 65.7088C53.906 66.0176 53.6533 66.2702 53.3445 66.2702C53.0357 66.2702 52.783 66.0176 52.783 65.7088C52.783 65.3999 53.0357 65.1473 53.3445 65.1473C53.6533 65.1473 53.906 65.3988 53.906 65.7088Z" fill="#343433"/>
<path d="M63.4514 68.5161C65 68.5161 66.2588 67.2573 66.2588 65.7088C66.2588 64.1602 65 62.9014 63.4514 62.9014C61.9029 62.9014 60.644 64.1602 60.644 65.7088C60.644 67.2573 61.9029 68.5161 63.4514 68.5161ZM63.4514 65.1473C63.7602 65.1473 64.0129 65.3999 64.0129 65.7088C64.0129 66.0176 63.7602 66.2702 63.4514 66.2702C63.1426 66.2702 62.89 66.0176 62.89 65.7088C62.89 65.3999 63.1426 65.1473 63.4514 65.1473Z" fill="#343433"/>
<path d="M53.9051 59.5604C53.7198 59.5435 53.5334 59.5323 53.3447 59.5323C49.9399 59.5323 47.1685 62.3038 47.1685 65.7086C47.1685 69.1134 49.9399 71.8848 53.3447 71.8848C55.4323 71.8848 57.2795 70.8393 58.398 69.2481C59.5165 70.8393 61.3637 71.8848 63.4513 71.8848C66.8561 71.8848 69.6276 69.1134 69.6276 65.7086C69.6276 62.3038 66.8561 59.5323 63.4513 59.5323C63.2615 59.5323 63.074 59.5447 62.8887 59.5604V49.4302C62.8887 49.428 62.8898 49.4268 62.8898 49.4246C62.8898 49.4223 62.8887 49.4212 62.8887 49.419V34.8711C62.8887 34.8498 62.8775 34.8329 62.8764 34.8127C62.8775 34.7914 62.8887 34.7756 62.8887 34.7543C62.8898 32.0311 61.4962 29.719 58.964 28.2412C58.6125 28.0368 58.1835 28.0368 57.832 28.2412C55.3009 29.7167 53.9062 32.03 53.9062 34.7543C53.9062 34.7745 53.9163 34.7902 53.9174 34.8105C53.9163 34.8318 53.9051 34.8486 53.9051 34.8711V59.5604ZM62.2172 61.9949C62.608 61.8658 63.0178 61.7782 63.4513 61.7782C65.6186 61.7782 67.3816 63.5413 67.3816 65.7086C67.3816 67.8759 65.6186 69.6389 63.4513 69.6389C61.284 69.6389 59.521 67.8759 59.521 65.7086C59.521 63.9994 60.6259 62.5542 62.1543 62.0163C62.1745 62.0073 62.1981 62.0051 62.2172 61.9949ZM59.5198 60.9495L59.521 50.5475H60.6428V60.2139C60.243 60.4206 59.8646 60.6642 59.5198 60.9495ZM56.1521 34.7543C56.1521 32.6791 57.2717 31.3551 58.398 30.5477C59.5243 31.3562 60.6439 32.6802 60.6428 34.7543C60.6428 34.7756 60.654 34.7914 60.6551 34.8127C60.654 34.834 60.6428 34.8498 60.6428 34.8711V48.3016H58.4003H58.3991H58.398C57.777 48.3016 57.2751 48.8036 57.2751 49.4246L57.2739 60.9484C56.9292 60.6631 56.5507 60.4194 56.151 60.2139V34.8711C56.151 34.8509 56.1409 34.8352 56.1397 34.815C56.1409 34.7947 56.1521 34.7768 56.1521 34.7543ZM54.5743 61.9938C54.5979 62.0051 54.6226 62.0084 54.6462 62.0174C56.1678 62.5553 57.2694 63.9938 57.2739 65.6973V65.7086C57.2739 65.7097 57.2751 65.7108 57.2751 65.7119C57.2728 67.8781 55.5109 69.6389 53.3447 69.6389C51.1774 69.6389 49.4144 67.8759 49.4144 65.7086C49.4144 63.5413 51.1774 61.7782 53.3447 61.7782C53.777 61.7782 54.1847 61.8647 54.5743 61.9938Z" fill="#343433"/>
<path d="M58.4308 47.1795C59.0507 47.1795 59.5538 46.6775 59.5538 46.0565C59.5538 45.4356 59.0507 44.9336 58.4308 44.9336H58.4185C57.7986 44.9336 57.3022 45.4356 57.3022 46.0565C57.3022 46.6775 57.8109 47.1795 58.4308 47.1795Z" fill="#343433"/>
</svg>
